<svg width="960" height="600"><path class="province" d="M367.6357027566048,218.16912604354377L367.6357027566048,218.95329930099354L361.8839702066575,222.86052779700788L363.0345785160348,225.97714569758602L365.3344861378505,227.53218910578278L361.8839702066575,232.95698263514214L352.67910373163954,238.3556856983961L351.52849542226227,235.27338192387197L343.47554625356065,240.66102981027007L336.57320539423586,247.55081652037734L334.2719887754813,254.39925508895203L323.9178229880249,255.15863446449703L318.16478144113876,272.4663245705299L314.71295651300693,277.68338432856683L314.71295651300693,281.3972607957404L314.71295651300693,282.8792290668637L285.9516757693923,291.73097531755013L288.25289238814685,296.13336786518937L291.7034083193396,294.66768446367416L290.5528000099623,302.7063162036791L297.45644986622574,309.2441175307473L300.9082747943578,315.0272714225324L292.8540166287171,320.06473969105L294.00462493809414,322.9346795833062L297.45644986622574,324.3655669985154L297.45644986622574,331.5039019829271L295.1552332474714,332.2147235386644L283.65045915063774,328.65339100900457L282.49985084126047,331.5039019829271L280.19863422250614,331.5039019829271L273.29629336318135,327.9405741991797L267.54325181629497,327.2257309982702L265.2433441944795,325.08202962102985L249.13613686013673,325.79645866724195L234.17953783517146,330.0794456855495L233.02892952579418,335.0572876148642L226.12658866646984,337.89355453206736L219.2229388102062,337.18588140509524L207.71816471337252,342.84122982284134L193.9121739977843,342.1362666543532L190.46165806659155,337.89355453206736L184.70861651970517,337.18588140509524L178.95688396975788,343.5474141049232L174.35445073224878,344.95702773488256L158.24724339790623,342.1362666543532L155.94602677915168,344.25161040363656L157.09663508852896,346.3635131320084L155.94602677915168,345.6604604842332L151.34490253858166,351.98072582112223L150.1942942292044,356.8753640815469L140.99073675112527,357.57402742347404L139.840128441748,359.66464269312957L129.4859626542917,353.38127668932606L127.18474603553716,344.95702773488256L127.18474603553716,340.7235787130665L119.13048786989646,341.42931208621707L111.0775387011945,338.6024490587933L107.62571377306267,335.0572876148642L103.02458953249266,335.7677496884551L99.57276460436083,332.2147235386644L100.72337291373822,325.08202962102985L98.42215629498355,321.500529923057L93.81972305747456,320.782023606223L92.67042374503637,317.188208900413L88.06799050752716,316.4672201003066L85.76677388877272,317.9071440363175L84.61616557939544,315.74745395489435L81.1656496482027,315.0272714225324L81.1656496482027,312.8609287502193L85.76677388877272,312.8609287502193L89.21859881690455,309.2441175307473L85.76677388877272,307.0692637727716L86.91738219815,304.16235804403925L85.76677388877272,292.4666585793018L78.86443302944826,288.78709098198476L76.5632164106936,288.78709098198476L75.41260810131632,290.99651612769253L71.96078317318461,290.25993397186005L70.81017486380733,285.8359684579932L71.96078317318461,283.6186802049764L67.35965893261448,276.9402260508426L73.11139148256166,274.70624584495886L73.11139148256166,271.71986929477396L71.96078317318461,270.2238305791237L74.26199979193916,265.72421193586354L85.76677388877272,260.45346721388705L84.61616557939544,257.4303299990413L90.36920712628171,258.94288644091L94.97033136685184,255.15863446449703L97.2715479856065,261.20716130291873L105.3258061512472,259.6992825016529L112.22814701057177,249.07642875951717L121.4317044886509,249.07642875951717L128.33535434491432,245.25943610367756L128.33535434491432,242.19590314863763L154.7967274667135,230.63403041763536L155.94602677915168,226.7540539627098L154.7967274667135,220.5164215792871L155.94602677915168,216.60089253667468L159.3978517072835,215.81683231651073L158.24724339790623,212.67141269326726L162.84967663541534,210.30732190607443L158.24724339790623,192.80732286991395L158.24724339790623,184.7572127444863L152.49551084795894,180.71024220517427L152.49551084795894,178.2731741536827L175.50505904162605,170.11386218770429L180.10618328219607,173.38589121649557L185.85922482908268,173.38589121649557L182.40739990095085,165.18667343791526L192.76156568840702,135.1273079868471L200.81582385404772,139.35454273622156L214.62181456963594,139.35454273622156L216.9217221914514,141.88407011708136L224.97598035709234,138.5112598160606L227.2771969758469,134.27860194160917L224.97598035709234,118.03863448141306L228.4278052852244,111.98894902983727L238.78197107268056,109.38360668494101L242.2324870038733,104.15644192399463L241.08187869449603,101.5305540916064L242.2324870038733,98.01988062908981L254.88786941008425,97.14126956382654L256.0384777194615,100.65504585088354L253.73726110070697,102.40728390001243L258.3396943382161,105.90055011625816L257.1890860288386,108.51496973649819L264.09273588510223,112.8545793669017L266.3926435069179,117.17549759204223L272.1456850538041,120.61970687015753L277.8974176037516,119.76073568375364L280.19863422250614,123.19614709906728L284.80106746001525,123.19614709906728L288.25289238814685,126.61798597596112L290.5528000099623,135.1273079868471L295.1552332474714,140.19905108658406L297.45644986622574,147.75904072422782L295.1552332474714,152.76717116310112L297.45644986622574,158.5827347724827L292.8540166287171,163.53912431988647L292.8540166287171,167.65408935590858L295.1552332474714,173.38589121649557L304.35879072555053,175.832351936274L329.6695555379722,178.2731741536827L345.776762872315,189.59452590652802L353.8297120410168,190.39771176131399L353.8297120410168,195.20973147734992L356.13092865977114,197.60680306636254L360.73336189728025,209.51695939424462L366.48509444722777,215.03042590892835Z" style="fill: rgb(237, 248, 233);"></path><path class="province" d="M139.840128441748,359.66464269312957L140.99073675112527,357.57402742347404L150.1942942292044,356.8753640815469L151.34490253858166,351.98072582112223L155.94602677915168,345.6604604842332L157.09663508852896,346.3635131320084L155.94602677915168,344.25161040363656L158.24724339790623,342.1362666543532L174.35445073224878,344.95702773488256L178.95688396975788,343.5474141049232L184.70861651970517,337.18588140509524L190.46165806659155,337.89355453206736L193.9121739977843,342.1362666543532L207.71816471337252,342.84122982284134L219.2229388102062,337.18588140509524L226.12658866646984,337.89355453206736L233.02892952579418,335.0572876148642L234.17953783517146,330.0794456855495L249.13613686013673,325.79645866724195L265.2433441944795,325.08202962102985L267.54325181629497,327.2257309982702L273.29629336318135,327.9405741991797L280.19863422250614,331.5039019829271L275.5975099819359,332.2147235386644L276.7481182913134,334.3480471061165L280.19863422250614,336.47620480569L280.19863422250614,342.1362666543532L276.7481182913134,342.84122982284134L276.7481182913134,344.95702773488256L277.8974176037516,350.57868054472607L281.3492425318832,351.28068791202304L280.19863422250614,354.0801979172706L281.3492425318832,358.96866510034994L279.04802591312864,364.53107659942344L284.80106746001525,372.8340811714148L292.8540166287171,378.3397689216905L302.05888310373507,378.3397689216905L308.96122396305964,383.1413243687335L312.41304889119124,383.1413243687335L313.5636572005685,384.5083575427306L322.76721467864763,384.5083575427306L329.6695555379722,388.60605798623277L333.12138046610426,387.2414973712986L337.7238137036129,389.288613962733L344.6261545629377,386.55949279563674L351.52849542226227,389.288613962733L349.2285878004468,391.3311897300978L351.52849542226227,390.64962897966586L352.67910373163954,392.6917724343263L353.8297120410168,393.3707973250409L353.8297120410168,396.0867193731132L354.9803203503941,398.7974407849905L359.5827535879032,400.82632705528385L361.8839702066575,398.7974407849905L364.183877828473,402.1778297260474L365.3344861378505,396.76565684525616L368.7863110659823,400.1508654230376L373.3887443034914,400.82632705528385L372.2381359941139,396.0867193731132L379.1404768534385,394.72941127394085L380.29108516281576,387.2414973712986L384.89351840032487,387.92472071256583L390.64525095027216,390.64962897966586L394.097075878404,398.1194749088146L399.85011742529036,404.87701624458913L396.3982924971583,408.24313121323576L400.99941673772855,414.95354488609513L403.3006333564831,437.54126072106385L400.99941673772855,439.51920974602854L400.99941673772855,444.1220989857493L398.6995091159131,443.46452565875956L398.6995091159131,441.4931255758333L397.5489008065358,442.808169263556L396.3982924971583,448.7114072770789L398.6995091159131,451.3282780027773L397.5489008065358,453.28734602761625L392.9464675690267,454.59254278964147L391.79585925964966,450.6737236137279L390.64525095027216,454.59254278964147L382.5923017815703,448.7114072770789L379.1404768534385,455.24399785271885L380.29108516281576,457.8501240353176L375.68996092224575,460.45201884861797L368.7863110659823,454.59254278964147L358.4321452785259,452.6350879882468L353.8297120410168,454.59254278964147L352.67910373163954,457.1997315925201L338.8744220129904,463.0497204268467L334.2719887754813,470.8165737046136L330.8201638473495,472.107730341084L311.26244058181396,473.3978807672032L310.1118322724369,464.34701059779235L304.35879072555053,463.0497204268467L304.35879072555053,457.8501240353176L302.05888310373507,455.89666970567475L297.45644986622574,458.50173325018466L292.8540166287171,455.24399785271885L281.3492425318832,453.28734602761625L279.04802591312864,453.9408208735422L272.1456850538041,462.3999475462986L272.1456850538041,466.2902715712506L270.9950767444268,468.23269510412314L267.54325181629497,464.9945302447292L268.6938601256725,456.54759225892917L266.3926435069179,454.59254278964147L259.49030264759335,457.8501240353176L256.0384777194615,457.1997315925201L253.73726110070697,459.15159797354136L245.68431193200513,459.15159797354136L241.08187869449603,454.59254278964147L238.78197107268056,454.59254278964147L237.6313627633033,457.8501240353176L233.02892952579418,454.59254278964147L231.8783212164169,457.8501240353176L227.2771969758469,451.3282780027773L226.12658866646984,452.6350879882468L220.37354711958324,451.3282780027773L220.37354711958324,446.7466364073921L216.9217221914514,448.05576358948576L211.16998964150434,445.43491971532336L208.86877302274956,443.46452565875956L207.71816471337252,438.20135991239187L206.56755640399524,437.54126072106385L199.66521554467067,438.8596763225012L195.06278230716157,432.918594845138L181.25679159157357,425.62538947041423L180.10618328219607,421.6318734618626L170.90262580411718,420.96600333110285L168.6014091853624,426.2906947687925L166.30150156354694,422.96423448171936L153.64611915733622,417.629113512415L149.0436859198271,412.27308541941176L139.840128441748,410.2602693215525L136.38830351361617,406.22471121979436L137.53891182299367,402.1778297260474L135.2376952042389,398.7974407849905L136.38830351361617,397.44272731885275L132.93647858548456,394.05104070520554L131.78587027610706,387.92472071256583L136.38830351361617,385.1929243777479L138.68952013237072,390.64962897966586L143.29064437294073,387.2414973712986L140.99073675112527,377.6533556497975L135.2376952042389,370.0720789844981L135.2376952042389,363.142248673889L138.68952013237072,362.44808465160264Z" style="fill: rgb(237, 248, 233);"></path><path class="province" d="M377.9898685440612,217.38617985744656L407.9030665939922,221.29893373074162L425.15957324077317,219.73513645180935L437.8149556469839,222.86052779700788L441.2667805751157,227.53218910578278L450.47033805319484,229.08330303261505L458.52459621883554,233.72906032857463L465.42693707816034,235.27338192387197L473.48119524380104,233.72906032857463L473.48119524380104,237.58502319084812L480.38353610312583,239.1240729215582L489.5870935812047,232.95698263514214L511.44603346549457,223.63961467881848L537.9074065872937,223.63961467881848L550.5627889935047,218.16912604354377L558.6170471591454,207.93631955443277L571.2724295653563,201.5925741491351L571.2724295653563,199.20250839049186L564.3687797090927,188.78890678708376L568.9712129466018,177.46080791436793L571.2724295653563,175.832351936274L593.1313694496464,182.33124336813455L600.0337103089707,178.2731741536827L604.6361435464798,170.11386218770429L619.5927425714453,169.2933328653785L626.4950834307701,164.3641598495234L627.6456917401472,159.4098073573498L631.097516668279,153.6007729794659L641.4516824557352,151.93479559181492L642.6022907651127,147.75904072422782L647.2034150056825,148.59478062255926L654.1070648619461,144.40547387256856L659.8587974118934,145.2439344066579L662.160014030648,144.40547387256856L664.4612306494028,146.0836207610928L672.5141798181044,146.9207177816411L675.966004746236,145.2439344066579L672.5141798181044,135.973382993732L656.4082814807007,120.61970687015753L648.3540233150597,119.76073568375364L641.4516824557352,126.61798597596112L634.5480325994718,122.3374124922093L626.4950834307701,123.19614709906728L623.0432585026381,126.61798597596112L618.4421342620681,122.3374124922093L617.2915259526906,117.17549759204223L621.8926501932608,115.44896572452694L621.8926501932608,109.38360668494101L633.3987332870336,83.85327532338135L647.2034150056825,90.07609011627312L657.5588897900777,82.06777458564204L666.7624472681573,78.48698170282L667.9130555775344,73.9934893254665L665.6118389587798,73.09312209131645L670.2142721962887,64.94379881346549L670.2142721962887,62.210682477926866L672.5141798181044,58.55585024861034L678.2672213649907,45.65560360629979L685.1695622243153,40.07236379119922L686.3201705336926,36.33407805057777L686.3201705336926,33.5180098356293L684.018953914938,31.63669056476658L685.1695622243153,27.86495373427465L681.7190462931223,25.023545877516312L677.1166130556135,25.97235061449021L677.1166130556135,23.12523044581428L687.4707788430696,11.656358766395329L695.5237280117717,9.730802115774168L700.1261612492806,16.451909947640388L692.073212080579,26.918049604139014L697.824944630526,29.75162799794373L698.9755529399035,32.578887052545156L702.4273778680351,32.578887052545156L704.7285944867899,27.86495373427465L711.6309353461145,33.5180098356293L710.4803270367372,37.26949534803168L715.0827602742461,53.049577840535676L719.6838845148161,54.88920225144568L724.2863177523252,52.1273946869685L733.4898752304043,53.96878370905665L735.7910918491589,52.1273946869685L740.3935250866678,52.1273946869685L742.6947417054223,46.58403281477001L746.145257636615,46.58403281477001L755.3501241116332,59.47189705298433L751.8982991835016,64.94379881346549L751.8982991835016,69.47918194058025L746.145257636615,77.59075303866905L743.8453500147996,83.85327532338135L744.9946493272378,97.14126956382654L739.2429167772907,98.01988062908981L734.6404835397816,118.03863448141306L732.3392669210268,110.25346621156746L708.1791104179827,132.58293526114505L716.2333685836231,145.2439344066579L720.8344928241934,141.88407011708136L720.8344928241934,140.19905108658406L721.9851011335707,140.19905108658406L723.1357094429482,142.72458720486725L723.1357094429482,141.88407011708136L723.1357094429482,146.0836207610928L716.2333685836231,147.75904072422782L718.5345852023779,154.43181350203224L712.7815436554915,158.5827347724827L711.6309353461145,164.3641598495234L708.1791104179827,161.06386871942163L705.879202796167,162.71531550772465L700.1261612492806,158.5827347724827L698.9755529399035,163.53912431988647L701.2767695586581,164.3641598495234L705.879202796167,172.56790470511362L703.5779861774124,179.8978912844484L707.0298111055445,191.20212489004837L717.3839768930006,187.17768429742523L721.9851011335707,200.79586674386735L719.6838845148161,204.76816188820203L724.2863177523252,207.1460422446279L723.1357094429482,213.4577160846195L719.6838845148161,214.24524662928854L717.3839768930006,217.38617985744656L712.7815436554915,218.95329930099354L707.0298111055445,216.60089253667468L707.0298111055445,219.73513645180935L702.4273778680351,218.95329930099354L698.9755529399035,223.63961467881848L695.5237280117717,222.86052779700788L682.868345605561,229.85981752222142L678.2672213649907,236.8155872431464L674.8153964368589,228.3080153592291L670.2142721962887,225.19792364780528L667.9130555775344,226.7540539627098L666.7624472681573,236.8155872431464L669.0636638869116,238.3556856983961L666.7624472681573,243.72870218078845L655.2576731713236,243.72870218078845L651.8058482431918,236.04562577795582L654.1070648619461,235.27338192387197L654.1070648619461,229.85981752222142L651.8058482431918,230.63403041763536L649.5046316244373,227.53218910578278L650.6552399338143,224.4199285150719L647.2034150056825,220.5164215792871L643.7528990744897,221.29893373074162L641.4516824557352,223.63961467881848L635.6986409088488,224.4199285150719L634.5480325994718,231.40947008608623L627.6456917401472,231.40947008608623L624.1938668120156,235.27338192387197L623.0432585026381,232.95698263514214L613.839701024559,239.1240729215582L610.3878760964271,238.3556856983961L609.2372677870501,229.85981752222142L604.6361435464798,229.08330303261505L600.0337103089707,235.27338192387197L601.1843186183482,239.1240729215582L596.583194377778,241.42959942308346L597.7324936902164,245.25943610367756L596.583194377778,246.78811406743625L598.8831019995935,253.6411016384211L598.8831019995935,257.4303299990413L595.432586068401,257.4303299990413L591.9807611402689,260.45346721388705L587.3783279027602,259.6992825016529L581.6265953528127,263.4687365118398L575.8735538059263,261.9620810184372L571.2724295653563,273.21400493563976L564.3687797090927,272.4663245705299L563.2181713997156,276.19660032536797L559.7676554685227,276.9402260508426L559.7676554685227,273.21400493563976L554.0146139216365,278.4277674309034L547.1122730623117,275.45081061565463L548.2615723747501,278.4277674309034L543.6604481341799,279.1699928208038L544.8110564435574,280.65473954203924L532.1556740373464,294.66768446367416L533.3062823467235,299.78901682719766L531.0050657279692,300.51816578753755L529.8544574185919,299.78901682719766L528.7038491092146,304.88890305601217L521.80150824989,306.3423559622777L514.8978583936266,301.9768155173979L510.2967341530564,298.3277440877599L503.3930842967927,296.8647124526158L499.9412593686611,294.66768446367416L505.6943009155475,283.6186802049764L503.3930842967927,276.9402260508426L497.64135174684566,278.4277674309034L491.8883101999593,288.0508302287067L490.737701890582,303.43372541812175L471.1799786250465,309.2441175307473L459.6752045282128,302.7063162036791L458.52459621883554,299.78901682719766L460.8258128375901,297.5972808252021L459.6752045282128,293.93334169465516L470.0293703156692,283.6186802049764L467.72815369691466,276.19660032536797L458.52459621883554,277.68338432856683L453.92216298132666,281.3972607957404L447.0198221220021,279.1699928208038L438.96556395636117,281.3972607957404L441.2667805751157,285.0978903157693L437.8149556469839,288.78709098198476L432.0632230970368,287.3124384544184L430.9126147876593,282.8792290668637L427.4607898595275,284.359355856118L425.15957324077317,276.19660032536797L421.7090573095802,276.19660032536797L414.80540745331655,270.2238305791237L407.9030665939922,268.7258804045557L415.95601576269405,261.9620810184372L417.1066240720713,255.15863446449703L413.6547991439395,249.07642875951717L404.45124166586015,251.3619030101246L402.1500250471058,254.39925508895203L400.99941673772855,252.88071900101966L398.6995091159131,255.91578914431727L395.24768418778126,253.6411016384211L396.3982924971583,255.15863446449703L392.9464675690267,256.6741696845312L392.9464675690267,250.60000770713566L381.44169347219304,240.66102981027007L386.0441267097019,238.3556856983961L386.0441267097019,236.04562577795582Z" style="fill: rgb(237, 248, 233); opacity: 0.8;"></path><path class="province" d="M280.19863422250614,331.5039019829271L282.49985084126047,331.5039019829271L283.65045915063774,328.65339100900457L295.1552332474714,332.2147235386644L297.45644986622574,331.5039019829271L297.45644986622574,324.3655669985154L294.00462493809414,322.9346795833062L292.8540166287171,320.06473969105L300.9082747943578,315.0272714225324L297.45644986622574,309.2441175307473L290.5528000099623,302.7063162036791L291.7034083193396,294.66768446367416L288.25289238814685,296.13336786518937L285.9516757693923,291.73097531755013L314.71295651300693,282.8792290668637L314.71295651300693,281.3972607957404L325.0684312974024,279.9134429582599L325.0684312974024,283.6186802049764L331.97077215672675,284.359355856118L334.2719887754813,288.0508302287067L340.0237213254286,287.3124384544184L343.47554625356065,293.93334169465516L349.2285878004468,293.2002228751626L354.9803203503941,295.39991423068284L358.4321452785259,293.93334169465516L365.3344861378505,298.3277440877599L367.6357027566048,296.13336786518937L371.08752768473664,296.8647124526158L371.08752768473664,292.4666585793018L376.83926023468416,290.25993397186005L375.68996092224575,279.9134429582599L390.64525095027216,286.57527099429706L392.9464675690267,282.8792290668637L396.3982924971583,284.359355856118L398.6995091159131,282.13763263543296L403.3006333564831,284.359355856118L412.5054998315011,293.93334169465516L417.1066240720713,295.39991423068284L414.80540745331655,292.4666585793018L415.95601576269405,291.73097531755013L420.5584490002029,295.39991423068284L424.01027392833475,296.13336786518937L429.76200647828205,302.7063162036791L434.36443971579115,301.9768155173979L437.8149556469839,306.3423559622777L440.11617226573867,304.88890305601217L442.417388884493,309.2441175307473L448.1704304313794,313.5840106854388L447.0198221220021,317.188208900413L449.3210387407564,319.3454094738116L448.1704304313794,320.782023606223L451.6209463625721,327.2257309982702L453.92216298132666,328.65339100900457L452.77155467194916,331.5039019829271L452.77155467194916,334.3480471061165L449.3210387407564,336.47620480569L451.6209463625721,339.30934358182725L447.0198221220021,339.30934358182725L444.7186055032473,342.1362666543532L445.8692138126248,345.6604604842332L440.11617226573867,351.28068791202304L440.11617226573867,354.7803396209868L443.56799719387027,358.2707361400927L442.417388884493,360.3618404531498L436.6656563345455,363.142248673889L427.4607898595275,358.96866510034994L425.15957324077317,360.3618404531498L430.9126147876593,370.0720789844981L434.36443971579115,369.379910857366L435.5150480251684,372.14332243676694L437.8149556469839,372.14332243676694L436.6656563345455,375.5904827101387L437.8149556469839,376.9650336517018L435.5150480251684,378.3397689216905L429.76200647828205,376.9650336517018L430.9126147876593,385.1929243777479L424.01027392833475,385.8755991721159L424.01027392833475,387.92472071256583L419.40784069082565,384.5083575427306L415.95601576269405,385.8755991721159L415.95601576269405,382.4557425845314L412.5054998315011,380.4000741109902L411.3548915221238,384.5083575427306L404.45124166586015,381.7713797916313L404.45124166586015,379.7131281860867L399.85011742529036,377.6533556497975L394.097075878404,363.8376326747415L386.0441267097019,361.75197734376604L383.7429100909476,363.142248673889L384.89351840032487,365.9184673763744L380.29108516281576,366.6124141546693L381.44169347219304,371.4537832066686L384.89351840032487,374.2129789803958L380.29108516281576,382.4557425845314L381.44169347219304,385.1929243777479L384.89351840032487,387.92472071256583L380.29108516281576,387.2414973712986L379.1404768534385,394.72941127394085L372.2381359941139,396.0867193731132L373.3887443034914,400.82632705528385L368.7863110659823,400.1508654230376L365.3344861378505,396.76565684525616L364.183877828473,402.1778297260474L361.8839702066575,398.7974407849905L359.5827535879032,400.82632705528385L354.9803203503941,398.7974407849905L353.8297120410168,396.0867193731132L353.8297120410168,393.3707973250409L352.67910373163954,392.6917724343263L351.52849542226227,390.64962897966586L349.2285878004468,391.3311897300978L351.52849542226227,389.288613962733L344.6261545629377,386.55949279563674L337.7238137036129,389.288613962733L333.12138046610426,387.2414973712986L329.6695555379722,388.60605798623277L322.76721467864763,384.5083575427306L313.5636572005685,384.5083575427306L312.41304889119124,383.1413243687335L308.96122396305964,383.1413243687335L302.05888310373507,378.3397689216905L292.8540166287171,378.3397689216905L284.80106746001525,372.8340811714148L279.04802591312864,364.53107659942344L281.3492425318832,358.96866510034994L280.19863422250614,354.0801979172706L281.3492425318832,351.28068791202304L277.8974176037516,350.57868054472607L276.7481182913134,344.95702773488256L276.7481182913134,342.84122982284134L280.19863422250614,342.1362666543532L280.19863422250614,336.47620480569L276.7481182913134,334.3480471061165L275.5975099819359,332.2147235386644Z" style="fill: rgb(237, 248, 233); opacity: 0.8;"></path><path class="province" d="M437.8149556469839,372.14332243676694L438.96556395636117,371.4537832066686L440.11617226573867,373.522920358946L438.96556395636117,379.02740138554395L447.0198221220021,373.522920358946L443.56799719387027,365.9184673763744L452.77155467194916,359.66464269312957L455.0727712907037,361.75197734376604L456.2233796000812,367.99766007117296L468.87876200629194,370.76232130767346L470.0293703156692,374.2129789803958L472.330586934424,375.5904827101387L471.1799786250465,376.9650336517018L472.330586934424,379.7131281860867L471.1799786250465,382.4557425845314L472.330586934424,384.5083575427306L482.68475272188016,386.55949279563674L484.9859693406345,384.5083575427306L484.9859693406345,382.4557425845314L486.136577650012,381.7713797916313L487.2858769624502,384.5083575427306L494.18952681871383,382.4557425845314L494.18952681871383,384.5083575427306L497.64135174684566,385.8755991721159L506.84490922492455,385.1929243777479L507.9955175343018,388.60605798623277L509.14612584367933,389.288613962733L511.44603346549457,387.92472071256583L519.5002916311355,393.3707973250409L522.9521165592673,392.0108718075059L526.4026324904601,392.6917724343263L524.1014158717057,393.3707973250409L522.9521165592673,397.44272731885275L526.4026324904601,400.82632705528385L521.80150824989,403.5280575976325L518.3496833217582,413.6139292026217L512.5966417748721,413.6139292026217L511.44603346549457,414.95354488609513L512.5966417748721,416.9599168964478L506.84490922492455,426.2906947687925L503.3930842967927,426.2906947687925L501.09186767803817,421.6318734618626L496.4907434374684,423.63072533156367L490.737701890582,419.63184694764965L488.43648527182745,422.2989610311988L487.2858769624502,424.96130149603607L489.5870935812047,428.28182331990627L483.83536103125743,433.5791894192833L486.136577650012,436.8823785691179L489.5870935812047,437.54126072106385L490.737701890582,442.1500389428764L496.4907434374684,443.46452565875956L497.64135174684566,448.7114072770789L493.0389185093363,445.43491971532336L488.43648527182745,450.0203860578691L491.8883101999593,454.59254278964147L495.3401351280909,454.59254278964147L497.64135174684566,459.15159797354136L488.43648527182745,461.7513914190337L487.2858769624502,459.8026794619822L483.83536103125743,460.45201884861797L482.68475272188016,456.54759225892917L480.38353610312583,455.24399785271885L478.08231948437106,457.8501240353176L472.330586934424,457.1997315925201L471.1799786250465,455.89666970567475L472.330586934424,454.59254278964147L472.330586934424,452.6350879882468L470.0293703156692,450.0203860578691L472.330586934424,447.4013367666729L465.42693707816034,446.7466364073921L464.27632876878306,451.9810745858871L459.6752045282128,454.59254278964147L459.6752045282128,459.8026794619822L452.77155467194916,466.93849325103565L453.92216298132666,480.4751963463009L449.3210387407564,483.04166830614827L448.1704304313794,480.4751963463009L442.417388884493,484.3234506324762L438.96556395636117,484.9632517745433L435.5150480251684,482.39968490589166L436.6656563345455,480.4751963463009L433.2138314064139,477.2623406950393L433.2138314064139,474.04331339307345L433.2138314064139,475.33049708061844L429.76200647828205,470.8165737046136L429.76200647828205,468.87867760596293L424.01027392833475,458.50173325018466L419.40784069082565,459.15159797354136L418.2572323814484,460.45201884861797L414.80540745331655,454.59254278964147L417.1066240720713,451.3282780027773L410.20428321274676,444.1220989857493L406.75245828461493,448.7114072770789L406.75245828461493,453.9408208735422L404.45124166586015,451.9810745858871L403.3006333564831,437.54126072106385L400.99941673772855,414.95354488609513L396.3982924971583,408.24313121323576L399.85011742529036,404.87701624458913L394.097075878404,398.1194749088146L390.64525095027216,390.64962897966586L384.89351840032487,387.92472071256583L381.44169347219304,385.1929243777479L380.29108516281576,382.4557425845314L384.89351840032487,374.2129789803958L381.44169347219304,371.4537832066686L380.29108516281576,366.6124141546693L384.89351840032487,365.9184673763744L383.7429100909476,363.142248673889L386.0441267097019,361.75197734376604L394.097075878404,363.8376326747415L399.85011742529036,377.6533556497975L404.45124166586015,379.7131281860867L404.45124166586015,381.7713797916313L411.3548915221238,384.5083575427306L412.5054998315011,380.4000741109902L415.95601576269405,382.4557425845314L415.95601576269405,385.8755991721159L419.40784069082565,384.5083575427306L424.01027392833475,387.92472071256583L424.01027392833475,385.8755991721159L430.9126147876593,385.1929243777479L429.76200647828205,376.9650336517018L435.5150480251684,378.3397689216905L437.8149556469839,376.9650336517018L436.6656563345455,375.5904827101387Z" style="fill: rgb(0, 109, 44);"></path><path class="province" d="M695.5237280117717,9.730802115774168L724.2863177523252,4.900578302655276L740.3935250866678,15.495631904639708L742.6947417054223,12.616560123298768L749.5970825647469,15.495631904639708L750.7476908741241,19.317084908585116L756.4994234240714,22.175719135046393L755.3501241116332,25.97235061449021L757.6500317334489,27.86495373427465L759.9512483522033,32.578887052545156L759.9512483522033,34.45833978316375L762.2524649709578,35.39560505805923L761.1018566615805,40.07236379119922L766.8548982084669,52.1273946869685L765.7042898990896,53.96878370905665L768.0055065178442,53.049577840535676L766.8548982084669,57.64101720397014L771.4560224490369,64.94379881346549L772.606630758414,74.89507359810148L776.058455686546,75.79377886271106L774.9078473771688,82.9619468949038L778.3596723053008,88.3018664209419L791.0150547115113,89.19038685739292L795.6161789520816,93.61499188858045L800.2186121895904,91.847126744545L810.5727779770466,103.28125201042997L816.325819523933,103.28125201042997L814.0246029051787,107.64359619309573L818.6257271457487,114.58557055870642L816.325819523933,118.03863448141306L820.9269437645032,126.61798597596112L840.4859760269776,125.76409558920318L841.6365843363551,121.47990188303652L847.3883168863019,118.03863448141306L853.1413584331883,118.03863448141306L862.3449159112679,112.8545793669017L873.8496900081011,111.98894902983727L869.247256770592,115.44896572452694L866.9460401518377,120.61970687015753L869.247256770592,126.61798597596112L866.9460401518377,130.88250699946457L864.6461325300222,130.88250699946457L862.3449159112679,134.27860194160917L862.3449159112679,136.82068318304437L857.7424826737588,148.59478062255926L858.8930909831358,153.6007729794659L853.1413584331883,161.88897878604394L851.9907501238113,166.83163816344745L849.6895335050567,167.65408935590858L847.3883168863019,175.01811194646382L845.0871002675478,176.64781900171465L832.4317178613369,170.93189021245632L827.8305936207671,176.64781900171465L820.9269437645032,179.8978912844484L824.378768692635,194.4101307741364L823.2281603832578,200.79586674386735L824.378768692635,205.561966020177L818.6257271457487,206.35339051135963L814.0246029051787,202.38688875935463L811.7233862864241,196.0087400804889L807.1209530489148,198.40585744816622L805.9703447395377,195.20973147734992L804.8210454270998,197.60680306636254L797.9173955708361,199.20250839049186L796.7667872614586,203.18062325199878L792.1656630208888,203.97558501213973L787.5632297833799,192.80732286991395L786.4126214740022,187.17768429742523L781.8101882364936,189.59452590652802L781.8101882364936,193.60811317834214L777.2090639959233,193.60811317834214L774.9078473771688,184.7572127444863L769.1548058302824,184.7572127444863L768.0055065178442,181.52012919624417L769.1548058302824,177.46080791436793L766.8548982084669,175.01811194646382L762.2524649709578,172.56790470511362L755.3501241116332,174.2013880621763L751.8982991835016,171.75114519211672L750.7476908741241,167.65408935590858L742.6947417054223,170.11386218770429L740.3935250866678,167.65408935590858L733.4898752304043,169.2933328653785L728.8887509898341,163.53912431988647L727.738142680457,154.43181350203224L718.5345852023779,154.43181350203224L716.2333685836231,147.75904072422782L723.1357094429482,146.0836207610928L723.1357094429482,141.88407011708136L723.1357094429482,142.72458720486725L721.9851011335707,140.19905108658406L720.8344928241934,140.19905108658406L720.8344928241934,141.88407011708136L716.2333685836231,145.2439344066579L708.1791104179827,132.58293526114505L732.3392669210268,110.25346621156746L734.6404835397816,118.03863448141306L739.2429167772907,98.01988062908981L744.9946493272378,97.14126956382654L743.8453500147996,83.85327532338135L746.145257636615,77.59075303866905L751.8982991835016,69.47918194058025L751.8982991835016,64.94379881346549L755.3501241116332,59.47189705298433L746.145257636615,46.58403281477001L742.6947417054223,46.58403281477001L740.3935250866678,52.1273946869685L735.7910918491589,52.1273946869685L733.4898752304043,53.96878370905665L724.2863177523252,52.1273946869685L719.6838845148161,54.88920225144568L715.0827602742461,53.049577840535676L710.4803270367372,37.26949534803168L711.6309353461145,33.5180098356293L704.7285944867899,27.86495373427465L702.4273778680351,32.578887052545156L698.9755529399035,32.578887052545156L697.824944630526,29.75162799794373L692.073212080579,26.918049604139014L700.1261612492806,16.451909947640388Z" style="fill: rgb(186, 228, 179); opacity: 0.8;"></path><path class="province" d="M367.6357027566048,218.95329930099354L377.9898685440612,217.38617985744656L386.0441267097019,236.04562577795582L386.0441267097019,238.3556856983961L381.44169347219304,240.66102981027007L392.9464675690267,250.60000770713566L392.9464675690267,256.6741696845312L396.3982924971583,255.15863446449703L395.24768418778126,253.6411016384211L398.6995091159131,255.91578914431727L400.99941673772855,252.88071900101966L402.1500250471058,254.39925508895203L404.45124166586015,251.3619030101246L413.6547991439395,249.07642875951717L417.1066240720713,255.15863446449703L415.95601576269405,261.9620810184372L407.9030665939922,268.7258804045557L414.80540745331655,270.2238305791237L421.7090573095802,276.19660032536797L425.15957324077317,276.19660032536797L427.4607898595275,284.359355856118L430.9126147876593,282.8792290668637L432.0632230970368,287.3124384544184L437.8149556469839,288.78709098198476L441.2667805751157,285.0978903157693L438.96556395636117,281.3972607957404L447.0198221220021,279.1699928208038L453.92216298132666,281.3972607957404L458.52459621883554,277.68338432856683L467.72815369691466,276.19660032536797L470.0293703156692,283.6186802049764L459.6752045282128,293.93334169465516L460.8258128375901,297.5972808252021L458.52459621883554,299.78901682719766L459.6752045282128,302.7063162036791L471.1799786250465,309.2441175307473L474.6304945562392,309.2441175307473L474.6304945562392,312.8609287502193L478.08231948437106,312.8609287502193L483.83536103125743,319.3454094738116L482.68475272188016,321.500529923057L486.136577650012,330.7926834686632L483.83536103125743,332.9267668252861L484.9859693406345,336.47620480569L489.5870935812047,337.18588140509524L490.737701890582,340.01585050910165L493.0389185093363,341.42931208621707L491.8883101999593,342.1362666543532L493.0389185093363,342.1362666543532L494.18952681871383,342.84122982284134L496.4907434374684,342.1362666543532L497.64135174684566,344.95702773488256L499.9412593686611,343.5474141049232L498.79065105928385,337.89355453206736L502.2424759874157,337.89355453206736L505.6943009155475,335.7677496884551L504.5436926061702,330.7926834686632L499.9412593686611,328.65339100900457L499.9412593686611,325.08202962102985L498.79065105928385,323.65032656722076L501.09186767803817,320.06473969105L501.09186767803817,315.0272714225324L510.2967341530564,315.0272714225324L510.2967341530564,317.9071440363175L528.7038491092146,327.2257309982702L527.5532407998373,332.9267668252861L526.4026324904601,335.0572876148642L527.5532407998373,340.01585050910165L526.4026324904601,344.25161040363656L516.0484667030037,344.25161040363656L516.0484667030037,347.06778669142415L517.199075012381,348.47359562336015L514.8978583936266,349.8778938497444L509.14612584367933,350.57868054472607L505.6943009155475,347.770080741655L501.09186767803817,347.770080741655L499.9412593686611,352.68198432357525L497.64135174684566,355.4785201416119L502.2424759874157,359.66464269312957L499.9412593686611,360.3618404531498L501.09186767803817,362.44808465160264L498.79065105928385,365.9184673763744L499.9412593686611,372.14332243676694L493.0389185093363,370.76232130767346L489.5870935812047,374.2129789803958L493.0389185093363,377.6533556497975L491.8883101999593,380.4000741109902L486.136577650012,381.7713797916313L484.9859693406345,382.4557425845314L484.9859693406345,384.5083575427306L482.68475272188016,386.55949279563674L472.330586934424,384.5083575427306L471.1799786250465,382.4557425845314L472.330586934424,379.7131281860867L471.1799786250465,376.9650336517018L472.330586934424,375.5904827101387L470.0293703156692,374.2129789803958L468.87876200629194,370.76232130767346L456.2233796000812,367.99766007117296L455.0727712907037,361.75197734376604L452.77155467194916,359.66464269312957L443.56799719387027,365.9184673763744L447.0198221220021,373.522920358946L438.96556395636117,379.02740138554395L440.11617226573867,373.522920358946L438.96556395636117,371.4537832066686L437.8149556469839,372.14332243676694L435.5150480251684,372.14332243676694L434.36443971579115,369.379910857366L430.9126147876593,370.0720789844981L425.15957324077317,360.3618404531498L427.4607898595275,358.96866510034994L436.6656563345455,363.142248673889L442.417388884493,360.3618404531498L443.56799719387027,358.2707361400927L440.11617226573867,354.7803396209868L440.11617226573867,351.28068791202304L445.8692138126248,345.6604604842332L444.7186055032473,342.1362666543532L447.0198221220021,339.30934358182725L451.6209463625721,339.30934358182725L449.3210387407564,336.47620480569L452.77155467194916,334.3480471061165L452.77155467194916,331.5039019829271L453.92216298132666,328.65339100900457L451.6209463625721,327.2257309982702L448.1704304313794,320.782023606223L449.3210387407564,319.3454094738116L447.0198221220021,317.188208900413L448.1704304313794,313.5840106854388L442.417388884493,309.2441175307473L440.11617226573867,304.88890305601217L437.8149556469839,306.3423559622777L434.36443971579115,301.9768155173979L429.76200647828205,302.7063162036791L424.01027392833475,296.13336786518937L420.5584490002029,295.39991423068284L415.95601576269405,291.73097531755013L414.80540745331655,292.4666585793018L417.1066240720713,295.39991423068284L412.5054998315011,293.93334169465516L403.3006333564831,284.359355856118L398.6995091159131,282.13763263543296L396.3982924971583,284.359355856118L392.9464675690267,282.8792290668637L390.64525095027216,286.57527099429706L375.68996092224575,279.9134429582599L376.83926023468416,290.25993397186005L371.08752768473664,292.4666585793018L371.08752768473664,296.8647124526158L367.6357027566048,296.13336786518937L365.3344861378505,298.3277440877599L358.4321452785259,293.93334169465516L354.9803203503941,295.39991423068284L349.2285878004468,293.2002228751626L343.47554625356065,293.93334169465516L340.0237213254286,287.3124384544184L334.2719887754813,288.0508302287067L331.97077215672675,284.359355856118L325.0684312974024,283.6186802049764L325.0684312974024,279.9134429582599L314.71295651300693,281.3972607957404L314.71295651300693,277.68338432856683L318.16478144113876,272.4663245705299L323.9178229880249,255.15863446449703L334.2719887754813,254.39925508895203L336.57320539423586,247.55081652037734L343.47554625356065,240.66102981027007L351.52849542226227,235.27338192387197L352.67910373163954,238.3556856983961L361.8839702066575,232.95698263514214L365.3344861378505,227.53218910578278L363.0345785160348,225.97714569758602L361.8839702066575,222.86052779700788Z" style="fill: rgb(237, 248, 233); opacity: 0.8;"></path><path class="province" d="M390.64525095027216,454.59254278964147L391.79585925964966,450.6737236137279L392.9464675690267,454.59254278964147L397.5489008065358,453.28734602761625L398.6995091159131,451.3282780027773L396.3982924971583,448.7114072770789L397.5489008065358,442.808169263556L398.6995091159131,441.4931255758333L398.6995091159131,443.46452565875956L400.99941673772855,444.1220989857493L400.99941673772855,439.51920974602854L403.3006333564831,437.54126072106385L404.45124166586015,451.9810745858871L406.75245828461493,453.9408208735422L406.75245828461493,448.7114072770789L410.20428321274676,444.1220989857493L417.1066240720713,451.3282780027773L414.80540745331655,454.59254278964147L418.2572323814484,460.45201884861797L419.40784069082565,459.15159797354136L424.01027392833475,458.50173325018466L429.76200647828205,468.87867760596293L429.76200647828205,470.8165737046136L433.2138314064139,475.33049708061844L433.2138314064139,474.04331339307345L433.2138314064139,477.2623406950393L436.6656563345455,480.4751963463009L435.5150480251684,482.39968490589166L438.96556395636117,484.9632517745433L442.417388884493,484.3234506324762L448.1704304313794,480.4751963463009L449.3210387407564,483.04166830614827L453.92216298132666,480.4751963463009L452.77155467194916,466.93849325103565L459.6752045282128,459.8026794619822L459.6752045282128,454.59254278964147L464.27632876878306,451.9810745858871L465.42693707816034,446.7466364073921L472.330586934424,447.4013367666729L470.0293703156692,450.0203860578691L472.330586934424,452.6350879882468L472.330586934424,454.59254278964147L471.1799786250465,455.89666970567475L472.330586934424,457.1997315925201L478.08231948437106,457.8501240353176L480.38353610312583,455.24399785271885L482.68475272188016,456.54759225892917L483.83536103125743,460.45201884861797L482.68475272188016,465.64326664138844L474.6304945562392,466.2902715712506L472.330586934424,464.34701059779235L468.87876200629194,467.5849858018518L465.42693707816034,464.9945302447292L461.9751121500285,470.8165737046136L463.12572045940556,471.4630125332268L463.12572045940556,474.6870295818256L465.42693707816034,477.9048179986234L472.330586934424,475.97518136839494L475.7811028656165,479.8337001650826L471.1799786250465,490.07889009768274L478.08231948437106,497.0875849795307L474.6304945562392,499.62953328751377L475.7811028656165,500.8991393868558L473.48119524380104,504.06847820917056L475.7811028656165,509.75980697981754L476.9317111749938,507.86516774000177L480.38353610312583,508.49645477453964L482.68475272188016,513.5446202773965L486.136577650012,514.1739466687903L487.2858769624502,512.9136440542372L493.0389185093363,512.9136440542372L495.3401351280909,517.320225179127L495.3401351280909,521.0895978768999L488.43648527182745,522.9707307967673L487.2858769624502,526.1036942405274L483.83536103125743,523.5983087698298L478.08231948437106,526.7288129402846L476.9317111749938,531.1031975566734L471.1799786250465,533.5988018073851L468.87876200629194,531.7281101090645L466.5775453875374,535.4691137187696L461.9751121500285,532.3514013195505L460.8258128375901,534.8454029855126L458.52459621883554,531.7281101090645L455.0727712907037,536.7131064938376L447.0198221220021,532.3514013195505L444.7186055032473,537.3362232171773L438.96556395636117,537.9577271195019L437.8149556469839,536.0912088078916L435.5150480251684,540.4446157184227L438.96556395636117,548.5049762803608L437.8149556469839,555.3002989303702L435.5150480251684,554.0663224959299L430.9126147876593,554.6841043319322L429.76200647828205,546.6482953273353L422.8596656189575,550.9788585927267L415.95601576269405,550.35996517217L413.6547991439395,542.3084451849231L404.45124166586015,541.0665572249956L406.75245828461493,534.8454029855126L405.60184997523766,532.975911281115L407.9030665939922,527.9798590927983L399.85011742529036,526.1036942405274L397.5489008065358,515.4333871931616L399.85011742529036,512.9136440542372L390.64525095027216,513.5446202773965L384.89351840032487,516.6919697661183L382.5923017815703,516.0620695480648L384.89351840032487,512.9136440542372L383.7429100909476,508.49645477453964L382.5923017815703,508.49645477453964L382.5923017815703,504.06847820917056L384.89351840032487,502.80112937380517L386.0441267097019,496.45080099025523L390.64525095027216,494.54195977931306L390.64525095027216,491.35543064851515L392.9464675690267,491.99262299903637L395.24768418778126,488.16303660483237L397.5489008065358,487.52297499347117L396.3982924971583,484.9632517745433L397.5489008065358,483.68195102643216L398.6995091159131,477.2623406950393L397.5489008065358,463.69775713689734L395.24768418778126,461.7513914190337L392.9464675690267,463.69775713689734Z" style="fill: rgb(186, 228, 179);"></path><path class="province" d="M473.48119524380104,504.06847820917056L475.7811028656165,505.9671035483099L482.68475272188016,500.8991393868558L493.0389185093363,505.33493138979895L495.3401351280909,503.4341951101255L495.3401351280909,500.8991393868558L504.5436926061702,497.7226921888019L506.84490922492455,496.45080099025523L505.6943009155475,493.2677575133096L509.14612584367933,491.35543064851515L512.5966417748721,497.0875849795307L516.0484667030037,497.0875849795307L517.199075012381,498.35901658565683L520.650899940513,497.0875849795307L521.80150824989,493.9056997066689L524.1014158717057,492.63103239227974L527.5532407998373,495.81523415377075L527.5532407998373,491.99262299903637L533.3062823467235,492.63103239227974L532.1556740373464,489.4395397288872L536.7567982779165,490.07889009768274L539.058014896671,485.6042698225576L542.5098398248028,487.52297499347117L544.8110564435574,483.04166830614827L548.2615723747501,486.2435916138621L552.8640056122592,481.1179093690413L560.9169547809611,481.1179093690413L562.0675630903381,482.39968490589166L562.0675630903381,487.52297499347117L564.3687797090927,488.16303660483237L558.6170471591454,500.26372770635356L559.7676554685227,500.8991393868558L563.2181713997156,498.35901658565683L565.51938801847,505.33493138979895L567.8206046372245,503.4341951101255L572.4217288777947,504.06847820917056L570.1218212559791,505.33493138979895L572.4217288777947,509.75980697981754L570.1218212559791,511.6524751981682L570.1218212559791,514.8044908383488L568.9712129466018,517.320225179127L566.6699963278472,517.320225179127L566.6699963278472,519.2065775505025L563.2181713997156,522.3443710291572L564.3687797090927,528.6057866178897L562.0675630903381,531.7281101090645L555.1652222310138,535.4691137187696L555.1652222310138,539.2015622227905L554.0146139216365,541.0665572249956L549.4121806841274,541.0665572249956L549.4121806841274,544.7884987255011L544.8110564435574,545.409091533489L543.6604481341799,547.8867407722527L542.5098398248028,548.5049762803608L542.5098398248028,551.59615940871L540.2086232060483,550.9788585927267L534.456890656101,552.2146804008391L535.6061899685392,558.9978530849176L533.3062823467235,557.7660604635496L533.3062823467235,549.742291823427L528.7038491092146,549.742291823427L527.5532407998373,547.8867407722527L522.9521165592673,550.35996517217L517.199075012381,548.5049762803608L511.44603346549457,548.5049762803608L506.84490922492455,546.0280835702581L506.84490922492455,544.1691255412394L502.2424759874157,542.9283934904126L501.09186767803817,537.3362232171773L503.3930842967927,532.3514013195505L502.2424759874157,530.4795036772766L491.8883101999593,529.8541865419677L487.2858769624502,527.9798590927983L487.2858769624502,526.1036942405274L488.43648527182745,522.9707307967673L495.3401351280909,521.0895978768999L495.3401351280909,517.320225179127L493.0389185093363,512.9136440542372L487.2858769624502,512.9136440542372L486.136577650012,514.1739466687903L482.68475272188016,513.5446202773965L480.38353610312583,508.49645477453964L476.9317111749938,507.86516774000177L475.7811028656165,509.75980697981754Z" style="fill: rgb(186, 228, 179);"></path><path class="province" d="M535.6061899685392,449.3652882432891L535.6061899685392,439.51920974602854L539.058014896671,432.25771296652704L541.3592315154253,432.25771296652704L542.5098398248028,430.2703216563308L551.7133973028817,431.5950367343323L554.0146139216365,430.2703216563308L551.7133973028817,426.2906947687925L556.3158305403908,424.29540473323544L568.9712129466018,427.6173999886097L574.7229454965491,433.5791894192833L578.1747704246809,432.25771296652704L580.4759870434355,432.918594845138L583.927811971567,429.6082828427397L585.0771112840055,430.2703216563308L583.927811971567,434.241001117606L585.0771112840055,434.90102234231875L591.9807611402689,428.94444446336036L591.9807611402689,430.93357767252434L594.2819777590237,432.918594845138L593.1313694496464,436.8823785691179L594.2819777590237,440.17696293176283L596.583194377778,440.834435765462L600.0337103089707,444.1220989857493L598.8831019995935,448.05576358948576L601.1843186183482,451.3282780027773L594.2819777590237,457.1997315925201L593.1313694496464,462.3999475462986L593.1313694496464,465.64326664138844L595.432586068401,466.93849325103565L594.2819777590237,469.52440624342665L596.583194377778,472.107730341084L596.583194377778,476.6181526317023L598.8831019995935,477.2623406950393L597.7324936902164,483.04166830614827L601.1843186183482,483.68195102643216L597.7324936902164,484.9632517745433L596.583194377778,493.9056997066689L593.1313694496464,495.81523415377075L587.3783279027602,492.63103239227974L582.77720366219,495.17943695536826L585.0771112840055,497.0875849795307L585.0771112840055,500.8991393868558L582.77720366219,501.5328806289035L579.3253787340582,498.35901658565683L574.7229454965491,497.7226921888019L573.5723371871718,502.16783917191157L572.4217288777947,504.06847820917056L567.8206046372245,503.4341951101255L565.51938801847,505.33493138979895L563.2181713997156,498.35901658565683L559.7676554685227,500.8991393868558L558.6170471591454,500.26372770635356L564.3687797090927,488.16303660483237L562.0675630903381,487.52297499347117L562.0675630903381,482.39968490589166L560.9169547809611,481.1179093690413L552.8640056122592,481.1179093690413L548.2615723747501,486.2435916138621L544.8110564435574,483.04166830614827L542.5098398248028,487.52297499347117L539.058014896671,485.6042698225576L537.9074065872937,481.75891837263373L535.6061899685392,481.1179093690413L537.9074065872937,477.2623406950393L536.7567982779165,475.33049708061844L539.058014896671,474.04331339307345L539.058014896671,470.8165737046136L536.7567982779165,468.87867760596293L531.0050657279692,470.8165737046136L529.8544574185919,469.52440624342665L537.9074065872937,462.3999475462986L536.7567982779165,457.8501240353176L536.7567982779165,452.6350879882468Z" style="fill: rgb(116, 196, 118);"></path><path class="province" d="M486.136577650012,381.7713797916313L491.8883101999593,380.4000741109902L493.0389185093363,377.6533556497975L489.5870935812047,374.2129789803958L493.0389185093363,370.76232130767346L499.9412593686611,372.14332243676694L498.79065105928385,365.9184673763744L501.09186767803817,362.44808465160264L499.9412593686611,360.3618404531498L502.2424759874157,359.66464269312957L497.64135174684566,355.4785201416119L499.9412593686611,352.68198432357525L501.09186767803817,347.770080741655L505.6943009155475,347.770080741655L509.14612584367933,350.57868054472607L514.8978583936266,349.8778938497444L517.199075012381,348.47359562336015L516.0484667030037,347.06778669142415L516.0484667030037,344.25161040363656L526.4026324904601,344.25161040363656L527.5532407998373,340.01585050910165L526.4026324904601,335.0572876148642L527.5532407998373,332.9267668252861L528.7038491092146,327.2257309982702L510.2967341530564,317.9071440363175L510.2967341530564,315.0272714225324L510.2967341530564,306.3423559622777L514.8978583936266,301.9768155173979L521.80150824989,306.3423559622777L528.7038491092146,304.88890305601217L529.8544574185919,299.78901682719766L531.0050657279692,300.51816578753755L533.3062823467235,299.78901682719766L532.1556740373464,294.66768446367416L544.8110564435574,280.65473954203924L543.6604481341799,279.1699928208038L548.2615723747501,278.4277674309034L547.1122730623117,275.45081061565463L554.0146139216365,278.4277674309034L559.7676554685227,273.21400493563976L559.7676554685227,276.9402260508426L560.9169547809611,279.1699928208038L557.4664388497683,288.0508302287067L556.3158305403908,291.73097531755013L551.7133973028817,296.8647124526158L551.7133973028817,300.51816578753755L556.3158305403908,305.61667139582653L550.5627889935047,316.4672201003066L551.7133973028817,330.7926834686632L552.8640056122592,338.6024490587933L548.2615723747501,350.57868054472607L548.2615723747501,354.0801979172706L550.5627889935047,355.4785201416119L551.7133973028817,361.0570900895829L554.0146139216365,362.44808465160264L554.0146139216365,367.30442723459305L558.6170471591454,372.14332243676694L558.6170471591454,376.2779309138624L555.1652222310138,378.3397689216905L552.8640056122592,376.2779309138624L549.4121806841274,377.6533556497975L540.2086232060483,376.2779309138624L537.9074065872937,378.3397689216905L542.5098398248028,379.7131281860867L542.5098398248028,381.7713797916313L547.1122730623117,384.5083575427306L547.1122730623117,386.55949279563674L541.3592315154253,386.55949279563674L539.058014896671,389.288613962733L540.2086232060483,400.1508654230376L535.6061899685392,400.1508654230376L533.3062823467235,396.76565684525616L526.4026324904601,392.6917724343263L522.9521165592673,392.0108718075059L519.5002916311355,393.3707973250409L511.44603346549457,387.92472071256583L509.14612584367933,389.288613962733L507.9955175343018,388.60605798623277L506.84490922492455,385.1929243777479L497.64135174684566,385.8755991721159L494.18952681871383,384.5083575427306L494.18952681871383,382.4557425845314L487.2858769624502,384.5083575427306Z" style="fill: rgb(186, 228, 179); opacity: 0.8;"></path><path class="province" d="M542.5098398248028,551.59615940871L542.5098398248028,548.5049762803608L543.6604481341799,547.8867407722527L544.8110564435574,545.409091533489L549.4121806841274,544.7884987255011L549.4121806841274,541.0665572249956L554.0146139216365,541.0665572249956L555.1652222310138,539.2015622227905L555.1652222310138,535.4691137187696L562.0675630903381,531.7281101090645L564.3687797090927,528.6057866178897L563.2181713997156,522.3443710291572L566.6699963278472,519.2065775505025L566.6699963278472,517.320225179127L568.9712129466018,517.320225179127L570.1218212559791,514.8044908383488L570.1218212559791,511.6524751981682L572.4217288777947,509.75980697981754L570.1218212559791,505.33493138979895L572.4217288777947,504.06847820917056L573.5723371871718,502.16783917191157L574.7229454965491,497.7226921888019L579.3253787340582,498.35901658565683L582.77720366219,501.5328806289035L585.0771112840055,500.8991393868558L585.0771112840055,497.0875849795307L582.77720366219,495.17943695536826L587.3783279027602,492.63103239227974L593.1313694496464,495.81523415377075L596.583194377778,493.9056997066689L597.7324936902164,496.45080099025523L605.7867518558571,494.54195977931306L608.0879684746119,496.45080099025523L606.9373601652344,498.35901658565683L603.4855352371028,500.8991393868558L600.0337103089707,504.7010960965747L603.4855352371028,507.2322217003315L616.1409176433135,503.4341951101255L621.8926501932608,506.60049315726536L620.7433508808226,503.4341951101255L623.0432585026381,501.5328806289035L627.6456917401472,503.4341951101255L628.7963000495245,502.16783917191157L631.097516668279,505.9671035483099L633.3987332870336,505.33493138979895L636.8492492182263,512.2838855545324L636.8492492182263,516.0620695480648L639.1504658369806,521.0895978768999L641.4516824557352,525.4769455282369L635.6986409088488,523.5983087698298L632.2481249776561,527.3551500527383L631.097516668279,531.1031975566734L623.0432585026381,532.975911281115L619.5927425714453,532.3514013195505L618.4421342620681,534.2229111644729L611.5384844058046,533.5988018073851L605.7867518558571,537.9577271195019L602.3349269277253,535.4691137187696L597.7324936902164,536.0912088078916L595.432586068401,540.4446157184227L602.3349269277253,541.0665572249956L603.4855352371028,542.9283934904126L598.8831019995935,544.1691255412394L597.7324936902164,546.0280835702581L591.9807611402689,542.9283934904126L586.2277195933827,545.409091533489L583.927811971567,549.1244317070868L577.0241621153036,550.9788585927267L574.7229454965491,549.742291823427L565.51938801847,550.35996517217L562.0675630903381,552.2146804008391L555.1652222310138,552.2146804008391L554.0146139216365,554.0663224959299L555.1652222310138,558.3813463836915L551.7133973028817,558.9978530849176L554.0146139216365,567.5990425739833L552.8640056122592,567.5990425739833L550.5627889935047,569.4372872535208L545.9616647529347,569.4372872535208L543.6604481341799,569.4372872535208L543.6604481341799,566.986413214546L540.2086232060483,558.3813463836915L542.5098398248028,551.59615940871ZM592.5554107964883,540.8333519651488L592.6994004597777,541.3760419932157L591.9807611402689,541.6091836776027L591.8367714769795,540.2890999126837L592.2687404668482,540.2890999126837Z" style="fill: rgb(0, 109, 44);"></path><path class="province" d="M718.5345852023779,154.43181350203224L727.738142680457,154.43181350203224L728.8887509898341,163.53912431988647L733.4898752304043,169.2933328653785L740.3935250866678,167.65408935590858L742.6947417054223,170.11386218770429L750.7476908741241,167.65408935590858L751.8982991835016,171.75114519211672L755.3501241116332,174.2013880621763L762.2524649709578,172.56790470511362L766.8548982084669,175.01811194646382L769.1548058302824,177.46080791436793L768.0055065178442,181.52012919624417L769.1548058302824,184.7572127444863L774.9078473771688,184.7572127444863L777.2090639959233,193.60811317834214L781.8101882364936,193.60811317834214L781.8101882364936,189.59452590652802L786.4126214740022,187.17768429742523L787.5632297833799,192.80732286991395L792.1656630208888,203.97558501213973L796.7667872614586,203.18062325199878L797.9173955708361,199.20250839049186L804.8210454270998,197.60680306636254L805.9703447395377,195.20973147734992L807.1209530489148,198.40585744816622L811.7233862864241,196.0087400804889L814.0246029051787,202.38688875935463L818.6257271457487,206.35339051135963L824.378768692635,205.561966020177L824.378768692635,207.93631955443277L822.0775520738807,215.03042590892835L812.8739945958012,218.95329930099354L815.1752112145559,219.73513645180935L815.1752112145559,223.63961467881848L810.5727779770466,218.16912604354377L810.5727779770466,215.81683231651073L809.4221696676696,214.24524662928854L805.9703447395377,213.4577160846195L803.670437117722,222.86052779700788L799.0680038802132,223.63961467881848L793.3149623333268,231.40947008608623L781.8101882364936,231.40947008608623L785.2620131646249,239.1240729215582L782.9607965458706,242.9634332758618L769.1548058302824,239.89368665320114L770.3054141396594,239.1240729215582L766.8548982084669,235.27338192387197L763.4030732803353,237.58502319084812L761.1018566615805,242.19590314863763L756.4994234240714,249.83933848604045L750.7476908741241,251.3619030101246L749.5970825647469,250.60000770713566L751.8982991835016,245.25943610367756L746.145257636615,237.58502319084812L746.145257636615,232.18261299647247L747.2958659459923,229.85981752222142L746.145257636615,229.08330303261505L740.3935250866678,217.38617985744656L740.3935250866678,212.67141269326726L738.0923084679132,212.67141269326726L734.6404835397816,216.60089253667468L732.3392669210268,209.51695939424462L726.5875343710798,205.561966020177L724.2863177523252,207.1460422446279L719.6838845148161,204.76816188820203L721.9851011335707,200.79586674386735L717.3839768930006,187.17768429742523L707.0298111055445,191.20212489004837L703.5779861774124,179.8978912844484L705.879202796167,172.56790470511362L701.2767695586581,164.3641598495234L698.9755529399035,163.53912431988647L700.1261612492806,158.5827347724827L705.879202796167,162.71531550772465L708.1791104179827,161.06386871942163L711.6309353461145,164.3641598495234L712.7815436554915,158.5827347724827Z" style="fill: rgb(237, 248, 233);"></path><path class="province" d="M604.6361435464798,274.70624584495886L602.3349269277253,268.7258804045557L597.7324936902164,266.47620698028345L604.6361435464798,260.45346721388705L602.3349269277253,259.6992825016529L601.1843186183482,255.91578914431727L598.8831019995935,253.6411016384211L596.583194377778,246.78811406743625L597.7324936902164,245.25943610367756L596.583194377778,241.42959942308346L601.1843186183482,239.1240729215582L600.0337103089707,235.27338192387197L604.6361435464798,229.08330303261505L609.2372677870501,229.85981752222142L610.3878760964271,238.3556856983961L613.839701024559,239.1240729215582L623.0432585026381,232.95698263514214L624.1938668120156,235.27338192387197L627.6456917401472,231.40947008608623L634.5480325994718,231.40947008608623L635.6986409088488,224.4199285150719L641.4516824557352,223.63961467881848L643.7528990744897,221.29893373074162L647.2034150056825,220.5164215792871L650.6552399338143,224.4199285150719L649.5046316244373,227.53218910578278L651.8058482431918,230.63403041763536L654.1070648619461,229.85981752222142L654.1070648619461,235.27338192387197L651.8058482431918,236.04562577795582L655.2576731713236,243.72870218078845L666.7624472681573,243.72870218078845L661.0094057212709,252.12156235220857L666.7624472681573,257.4303299990413L670.2142721962887,256.6741696845312L672.5141798181044,264.22047666630795L674.8153964368589,267.22601034574154L670.2142721962887,271.71986929477396L669.0636638869116,276.19660032536797L662.160014030648,282.13763263543296L656.4082814807007,284.359355856118L651.8058482431918,282.8792290668637L650.6552399338143,279.9134429582599L650.6552399338143,279.1699928208038L648.3540233150597,276.19660032536797L649.5046316244373,273.21400493563976L646.0528066963054,273.21400493563976L643.7528990744897,270.2238305791237L643.7528990744897,266.47620698028345L646.0528066963054,266.47620698028345L646.0528066963054,264.97344230850535L642.6022907651127,262.71479598636506L640.3010741463581,257.4303299990413L642.6022907651127,255.15863446449703L636.8492492182263,254.39925508895203L632.2481249776561,248.31474517571814L628.7963000495245,250.60000770713566L629.9469083589015,252.88071900101966L626.4950834307701,252.88071900101966L625.3444751213926,255.91578914431727L620.7433508808226,256.6741696845312L623.0432585026381,261.9620810184372L616.1409176433135,267.22601034574154L617.2915259526906,272.4663245705299L620.7433508808226,274.70624584495886L626.4950834307701,273.21400493563976L628.7963000495245,275.45081061565463L631.097516668279,273.21400493563976L634.5480325994718,273.21400493563976L635.6986409088488,281.3972607957404L633.3987332870336,284.359355856118L633.3987332870336,286.57527099429706L640.3010741463581,290.99651612769253L644.903507383867,289.5245759690779L649.5046316244373,294.66768446367416L642.6022907651127,302.7063162036791L634.5480325994718,302.7063162036791L629.9469083589015,308.51849302294556L627.6456917401472,307.0692637727716L627.6456917401472,310.69244108207977L624.1938668120156,310.69244108207977L620.7433508808226,317.9071440363175L614.9903093339362,324.3655669985154L617.2915259526906,330.0794456855495L614.9903093339362,331.5039019829271L612.6890927151819,329.36742975834625L610.3878760964271,331.5039019829271L609.2372677870501,330.7926834686632L594.2819777590237,327.2257309982702L590.8301528308918,322.2169935944788L594.2819777590237,318.62730174254636L594.2819777590237,314.3050296633895L600.0337103089707,305.61667139582653L597.7324936902164,304.88890305601217L595.432586068401,297.5972808252021L591.9807611402689,295.39991423068284L591.9807611402689,290.99651612769253L595.432586068401,286.57527099429706L595.432586068401,284.359355856118L596.583194377778,282.8792290668637L602.3349269277253,282.13763263543296ZM640.3010741463581,264.97344230850535L639.1504658369806,269.47424287338595L639.1504658369806,272.4663245705299L635.6986409088488,271.71986929477396L635.6986409088488,269.47424287338595L634.5480325994718,266.47620698028345Z" style="fill: rgb(49, 163, 84); opacity: 0.8;"></path><path class="province" d="M548.2615723747501,408.91633225894645L547.1122730623117,405.5502547379499L541.3592315154253,402.85387071018874L542.5098398248028,400.82632705528385L540.2086232060483,400.1508654230376L539.058014896671,389.288613962733L541.3592315154253,386.55949279563674L547.1122730623117,386.55949279563674L547.1122730623117,384.5083575427306L542.5098398248028,381.7713797916313L542.5098398248028,379.7131281860867L537.9074065872937,378.3397689216905L540.2086232060483,376.2779309138624L549.4121806841274,377.6533556497975L552.8640056122592,376.2779309138624L555.1652222310138,378.3397689216905L558.6170471591454,376.2779309138624L565.51938801847,386.55949279563674L575.8735538059263,390.64962897966586L587.3783279027602,389.288613962733L590.8301528308918,391.3311897300978L594.2819777590237,389.288613962733L595.432586068401,398.1194749088146L597.7324936902164,399.47354398897966L600.0337103089707,398.1194749088146L604.6361435464798,399.47354398897966L605.7867518558571,402.85387071018874L608.0879684746119,404.2034625520296L612.6890927151819,402.1778297260474L613.839701024559,404.87701624458913L616.1409176433135,404.87701624458913L618.4421342620681,408.24313121323576L624.1938668120156,410.93100812105286L620.7433508808226,416.2919378646043L625.3444751213926,423.63072533156367L625.3444751213926,428.94444446336036L623.0432585026381,430.93357767252434L617.2915259526906,429.6082828427397L609.2372677870501,435.5622606618021L601.1843186183482,436.2217110822087L596.583194377778,440.834435765462L594.2819777590237,440.17696293176283L593.1313694496464,436.8823785691179L594.2819777590237,432.918594845138L591.9807611402689,430.93357767252434L591.9807611402689,428.94444446336036L585.0771112840055,434.90102234231875L583.927811971567,434.241001117606L585.0771112840055,430.2703216563308L583.927811971567,429.6082828427397L580.4759870434355,432.918594845138L578.1747704246809,432.25771296652704L574.7229454965491,433.5791894192833L568.9712129466018,427.6173999886097L556.3158305403908,424.29540473323544L551.7133973028817,426.2906947687925L554.0146139216365,430.2703216563308L551.7133973028817,431.5950367343323L542.5098398248028,430.2703216563308L541.3592315154253,432.25771296652704L539.058014896671,432.25771296652704L535.6061899685392,439.51920974602854L533.3062823467235,436.2217110822087L532.1556740373464,436.8823785691179L527.5532407998373,428.94444446336036L525.2520241810828,429.6082828427397L526.4026324904601,422.96423448171936L525.2520241810828,420.29831639993796L527.5532407998373,417.629113512415L529.8544574185919,418.9650771834205L533.3062823467235,416.9599168964478L534.456890656101,418.2964865772945L535.6061899685392,416.9599168964478L537.9074065872937,418.2964865772945L543.6604481341799,412.94289845161677L545.9616647529347,414.283128207903Z" style="fill: rgb(116, 196, 118);"></path><path class="province" d="M468.87876200629194,467.5849858018518L472.330586934424,464.34701059779235L474.6304945562392,466.2902715712506L482.68475272188016,465.64326664138844L483.83536103125743,460.45201884861797L487.2858769624502,459.8026794619822L488.43648527182745,461.7513914190337L497.64135174684566,459.15159797354136L495.3401351280909,454.59254278964147L491.8883101999593,454.59254278964147L488.43648527182745,450.0203860578691L493.0389185093363,445.43491971532336L497.64135174684566,448.7114072770789L499.9412593686611,448.05576358948576L498.79065105928385,444.7779008949709L499.9412593686611,444.7779008949709L501.09186767803817,446.7466364073921L501.09186767803817,448.7114072770789L502.2424759874157,449.3652882432891L504.5436926061702,444.7779008949709L511.44603346549457,443.46452565875956L511.44603346549457,438.8596763225012L513.7472500842493,438.20135991239187L517.199075012381,439.51920974602854L517.199075012381,441.4931255758333L522.9521165592673,440.17696293176283L524.1014158717057,446.7466364073921L526.4026324904601,446.7466364073921L526.4026324904601,450.6737236137279L528.7038491092146,449.3652882432891L528.7038491092146,453.28734602761625L533.3062823467235,453.28734602761625L535.6061899685392,449.3652882432891L536.7567982779165,452.6350879882468L536.7567982779165,457.8501240353176L537.9074065872937,462.3999475462986L529.8544574185919,469.52440624342665L531.0050657279692,470.8165737046136L536.7567982779165,468.87867760596293L539.058014896671,470.8165737046136L539.058014896671,474.04331339307345L536.7567982779165,475.33049708061844L537.9074065872937,477.2623406950393L535.6061899685392,481.1179093690413L537.9074065872937,481.75891837263373L539.058014896671,485.6042698225576L536.7567982779165,490.07889009768274L532.1556740373464,489.4395397288872L533.3062823467235,492.63103239227974L527.5532407998373,491.99262299903637L527.5532407998373,495.81523415377075L524.1014158717057,492.63103239227974L521.80150824989,493.9056997066689L520.650899940513,497.0875849795307L517.199075012381,498.35901658565683L516.0484667030037,497.0875849795307L512.5966417748721,497.0875849795307L509.14612584367933,491.35543064851515L505.6943009155475,493.2677575133096L506.84490922492455,496.45080099025523L504.5436926061702,497.7226921888019L495.3401351280909,500.8991393868558L495.3401351280909,503.4341951101255L493.0389185093363,505.33493138979895L482.68475272188016,500.8991393868558L475.7811028656165,505.9671035483099L473.48119524380104,504.06847820917056L475.7811028656165,500.8991393868558L474.6304945562392,499.62953328751377L478.08231948437106,497.0875849795307L471.1799786250465,490.07889009768274L475.7811028656165,479.8337001650826L472.330586934424,475.97518136839494L465.42693707816034,477.9048179986234L463.12572045940556,474.6870295818256L463.12572045940556,471.4630125332268L461.9751121500285,470.8165737046136L465.42693707816034,464.9945302447292Z" style="fill: rgb(186, 228, 179);"></path><path class="province" d="M617.2915259526906,330.0794456855495L614.9903093339362,324.3655669985154L620.7433508808226,317.9071440363175L624.1938668120156,310.69244108207977L627.6456917401472,310.69244108207977L627.6456917401472,307.0692637727716L629.9469083589015,308.51849302294556L634.5480325994718,302.7063162036791L642.6022907651127,302.7063162036791L649.5046316244373,294.66768446367416L651.8058482431918,297.5972808252021L662.160014030648,297.5972808252021L667.9130555775344,305.61667139582653L663.3106223400252,307.7940916332735L663.3106223400252,310.69244108207977L667.9130555775344,314.3050296633895L672.5141798181044,314.3050296633895L674.8153964368589,309.9676677894073L682.868345605561,302.7063162036791L684.018953914938,297.5972808252021L688.6213871524469,292.4666585793018L689.7719954618244,302.7063162036791L692.073212080579,305.61667139582653L701.2767695586581,308.51849302294556L704.7285944867899,306.3423559622777L705.879202796167,308.51849302294556L710.4803270367372,308.51849302294556L711.6309353461145,310.69244108207977L710.4803270367372,317.9071440363175L708.1791104179827,320.06473969105L700.1261612492806,318.62730174254636L698.9755529399035,321.500529923057L690.9226037712015,322.9346795833062L690.9226037712015,325.79645866724195L694.3744286993333,328.65339100900457L686.3201705336926,330.0794456855495L688.6213871524469,335.0572876148642L685.1695622243153,332.2147235386644L672.5141798181044,341.42931208621707L675.966004746236,349.1751343607052L667.9130555775344,348.47359562336015L666.7624472681573,347.06778669142415L662.160014030648,348.47359562336015L659.8587974118934,353.38127668932606L656.4082814807007,354.0801979172706L655.2576731713236,358.2707361400927L652.9564565525691,358.2707361400927L651.8058482431918,354.7803396209868L649.5046316244373,354.0801979172706L644.903507383867,357.57402742347404L641.4516824557352,355.4785201416119L640.3010741463581,357.57402742347404L634.5480325994718,349.8778938497444L629.9469083589015,350.57868054472607L628.7963000495245,354.7803396209868L626.4950834307701,355.4785201416119L618.4421342620681,355.4785201416119L616.1409176433135,351.28068791202304L608.0879684746119,347.770080741655L611.5384844058046,342.84122982284134L613.839701024559,342.1362666543532L617.2915259526906,337.18588140509524L625.3444751213926,331.5039019829271L614.9903093339362,335.7677496884551Z" style="fill: rgb(0, 109, 44);"></path><path class="province" d="M601.1843186183482,451.3282780027773L598.8831019995935,448.05576358948576L600.0337103089707,444.1220989857493L596.583194377778,440.834435765462L601.1843186183482,436.2217110822087L609.2372677870501,435.5622606618021L617.2915259526906,429.6082828427397L623.0432585026381,430.93357767252434L625.3444751213926,428.94444446336036L627.6456917401472,429.6082828427397L633.3987332870336,425.62538947041423L635.6986409088488,427.6173999886097L633.3987332870336,430.2703216563308L633.3987332870336,432.25771296652704L639.1504658369806,430.93357767252434L637.9998575276036,428.94444446336036L639.1504658369806,427.6173999886097L643.7528990744897,432.25771296652704L650.6552399338143,432.918594845138L652.9564565525691,435.5622606618021L650.6552399338143,438.8596763225012L650.6552399338143,440.834435765462L655.2576731713236,444.7779008949709L656.4082814807007,451.3282780027773L656.4082814807007,451.9810745858871L654.1070648619461,455.24399785271885L647.2034150056825,459.15159797354136L643.7528990744897,456.54759225892917L636.8492492182263,461.7513914190337L639.1504658369806,466.93849325103565L637.9998575276036,469.52440624342665L631.097516668279,474.04331339307345L632.2481249776561,479.190497726731L628.7963000495245,482.39968490589166L629.9469083589015,484.3234506324762L626.4950834307701,487.52297499347117L624.1938668120156,496.45080099025523L621.8926501932608,497.0875849795307L623.0432585026381,501.5328806289035L620.7433508808226,503.4341951101255L621.8926501932608,506.60049315726536L616.1409176433135,503.4341951101255L603.4855352371028,507.2322217003315L600.0337103089707,504.7010960965747L603.4855352371028,500.8991393868558L606.9373601652344,498.35901658565683L608.0879684746119,496.45080099025523L605.7867518558571,494.54195977931306L597.7324936902164,496.45080099025523L596.583194377778,493.9056997066689L597.7324936902164,484.9632517745433L601.1843186183482,483.68195102643216L597.7324936902164,483.04166830614827L598.8831019995935,477.2623406950393L596.583194377778,476.6181526317023L596.583194377778,472.107730341084L594.2819777590237,469.52440624342665L595.432586068401,466.93849325103565L593.1313694496464,465.64326664138844L593.1313694496464,462.3999475462986L594.2819777590237,457.1997315925201Z" style="fill: rgb(186, 228, 179);"></path><path class="province" d="M550.5627889935047,355.4785201416119L556.3158305403908,354.7803396209868L560.9169547809611,351.98072582112223L565.51938801847,351.28068791202304L568.9712129466018,347.770080741655L572.4217288777947,347.770080741655L572.4217288777947,344.25161040363656L581.6265953528127,345.6604604842332L586.2277195933827,343.5474141049232L593.1313694496464,337.89355453206736L594.2819777590237,327.2257309982702L609.2372677870501,330.7926834686632L610.3878760964271,331.5039019829271L612.6890927151819,329.36742975834625L614.9903093339362,331.5039019829271L617.2915259526906,330.0794456855495L614.9903093339362,335.7677496884551L625.3444751213926,331.5039019829271L617.2915259526906,337.18588140509524L613.839701024559,342.1362666543532L611.5384844058046,342.84122982284134L608.0879684746119,347.770080741655L616.1409176433135,351.28068791202304L618.4421342620681,355.4785201416119L626.4950834307701,355.4785201416119L626.4950834307701,358.2707361400927L631.097516668279,360.3618404531498L632.2481249776561,365.9184673763744L626.4950834307701,369.379910857366L624.1938668120156,365.225740428133L619.5927425714453,363.8376326747415L618.4421342620681,365.9184673763744L618.4421342620681,370.0720789844981L616.1409176433135,372.14332243676694L614.9903093339362,377.6533556497975L609.2372677870501,378.3397689216905L609.2372677870501,380.4000741109902L612.6890927151819,382.4557425845314L613.839701024559,386.55949279563674L618.4421342620681,389.288613962733L621.8926501932608,387.92472071256583L623.0432585026381,399.47354398897966L617.2915259526906,400.82632705528385L616.1409176433135,404.87701624458913L613.839701024559,404.87701624458913L612.6890927151819,402.1778297260474L608.0879684746119,404.2034625520296L605.7867518558571,402.85387071018874L604.6361435464798,399.47354398897966L600.0337103089707,398.1194749088146L597.7324936902164,399.47354398897966L595.432586068401,398.1194749088146L594.2819777590237,389.288613962733L590.8301528308918,391.3311897300978L587.3783279027602,389.288613962733L575.8735538059263,390.64962897966586L565.51938801847,386.55949279563674L558.6170471591454,376.2779309138624L558.6170471591454,372.14332243676694L554.0146139216365,367.30442723459305L554.0146139216365,362.44808465160264L551.7133973028817,361.0570900895829Z" style="fill: rgb(0, 109, 44);"></path><path class="province" d="M666.7624472681573,243.72870218078845L669.0636638869116,238.3556856983961L666.7624472681573,236.8155872431464L667.9130555775344,226.7540539627098L670.2142721962887,225.19792364780528L674.8153964368589,228.3080153592291L678.2672213649907,236.8155872431464L682.868345605561,229.85981752222142L695.5237280117717,222.86052779700788L698.9755529399035,223.63961467881848L702.4273778680351,218.95329930099354L707.0298111055445,219.73513645180935L707.0298111055445,216.60089253667468L712.7815436554915,218.95329930099354L717.3839768930006,217.38617985744656L719.6838845148161,214.24524662928854L723.1357094429482,213.4577160846195L724.2863177523252,207.1460422446279L726.5875343710798,205.561966020177L732.3392669210268,209.51695939424462L734.6404835397816,216.60089253667468L738.0923084679132,212.67141269326726L740.3935250866678,212.67141269326726L740.3935250866678,217.38617985744656L746.145257636615,229.08330303261505L747.2958659459923,229.85981752222142L746.145257636615,232.18261299647247L746.145257636615,237.58502319084812L751.8982991835016,245.25943610367756L749.5970825647469,250.60000770713566L750.7476908741241,251.3619030101246L735.7910918491589,262.71479598636506L730.0393592992116,271.71986929477396L720.8344928241934,271.71986929477396L717.3839768930006,276.19660032536797L717.3839768930006,282.8792290668637L703.5779861774124,282.8792290668637L696.674336321149,288.0508302287067L690.9226037712015,288.78709098198476L688.6213871524469,283.6186802049764L694.3744286993333,279.9134429582599L692.073212080579,273.9595128830397L703.5779861774124,259.6992825016529L702.4273778680351,254.39925508895203L698.9755529399035,252.12156235220857L692.073212080579,252.12156235220857L684.018953914938,262.71479598636506L674.8153964368589,267.22601034574154L672.5141798181044,264.22047666630795L670.2142721962887,256.6741696845312L666.7624472681573,257.4303299990413L661.0094057212709,252.12156235220857Z" style="fill: rgb(186, 228, 179);"></path><path class="province" d="M557.4664388497683,288.0508302287067L560.9169547809611,279.1699928208038L559.7676554685227,276.9402260508426L563.2181713997156,276.19660032536797L564.3687797090927,272.4663245705299L571.2724295653563,273.21400493563976L575.8735538059263,261.9620810184372L581.6265953528127,263.4687365118398L587.3783279027602,259.6992825016529L591.9807611402689,260.45346721388705L595.432586068401,257.4303299990413L598.8831019995935,257.4303299990413L598.8831019995935,253.6411016384211L601.1843186183482,255.91578914431727L602.3349269277253,259.6992825016529L604.6361435464798,260.45346721388705L597.7324936902164,266.47620698028345L602.3349269277253,268.7258804045557L604.6361435464798,274.70624584495886L602.3349269277253,282.13763263543296L596.583194377778,282.8792290668637L595.432586068401,284.359355856118L595.432586068401,286.57527099429706L591.9807611402689,290.99651612769253L591.9807611402689,295.39991423068284L595.432586068401,297.5972808252021L597.7324936902164,304.88890305601217L600.0337103089707,305.61667139582653L594.2819777590237,314.3050296633895L594.2819777590237,318.62730174254636L590.8301528308918,322.2169935944788L594.2819777590237,327.2257309982702L593.1313694496464,337.89355453206736L586.2277195933827,343.5474141049232L581.6265953528127,345.6604604842332L572.4217288777947,344.25161040363656L572.4217288777947,347.770080741655L568.9712129466018,347.770080741655L565.51938801847,351.28068791202304L560.9169547809611,351.98072582112223L556.3158305403908,354.7803396209868L550.5627889935047,355.4785201416119L548.2615723747501,354.0801979172706L548.2615723747501,350.57868054472607L552.8640056122592,338.6024490587933L551.7133973028817,330.7926834686632L550.5627889935047,316.4672201003066L556.3158305403908,305.61667139582653L551.7133973028817,300.51816578753755L551.7133973028817,296.8647124526158L556.3158305403908,291.73097531755013Z" style="fill: rgb(186, 228, 179); opacity: 0.8;"></path><path class="province" d="M632.2481249776561,365.9184673763744L631.097516668279,360.3618404531498L626.4950834307701,358.2707361400927L626.4950834307701,355.4785201416119L628.7963000495245,354.7803396209868L635.6986409088488,358.2707361400927L639.1504658369806,363.8376326747415L644.903507383867,364.53107659942344L647.2034150056825,369.379910857366L651.8058482431918,368.6889623779476L649.5046316244373,376.9650336517018L650.6552399338143,378.3397689216905L652.9564565525691,376.9650336517018L654.1070648619461,383.8250096011784L659.8587974118934,384.5083575427306L662.160014030648,381.0851174225754L665.6118389587798,383.1413243687335L665.6118389587798,388.60605798623277L657.5588897900777,387.2414973712986L658.7081891025164,392.6917724343263L656.4082814807007,393.3707973250409L655.2576731713236,396.76565684525616L662.160014030648,402.85387071018874L659.8587974118934,405.5502547379499L661.0094057212709,407.57114805459474L667.9130555775344,406.8973206685409L669.0636638869116,408.91633225894645L671.3635715087271,409.58769187135954L671.3635715087271,410.2602693215525L669.0636638869116,416.2919378646043L666.7624472681573,416.9599168964478L667.9130555775344,420.29831639993796L662.160014030648,421.6318734618626L662.160014030648,426.95419392766024L659.8587974118934,430.93357767252434L652.9564565525691,435.5622606618021L650.6552399338143,432.918594845138L643.7528990744897,432.25771296652704L639.1504658369806,427.6173999886097L637.9998575276036,428.94444446336036L639.1504658369806,430.93357767252434L633.3987332870336,432.25771296652704L633.3987332870336,430.2703216563308L635.6986409088488,427.6173999886097L633.3987332870336,425.62538947041423L627.6456917401472,429.6082828427397L625.3444751213926,428.94444446336036L625.3444751213926,423.63072533156367L620.7433508808226,416.2919378646043L624.1938668120156,410.93100812105286L618.4421342620681,408.24313121323576L616.1409176433135,404.87701624458913L617.2915259526906,400.82632705528385L623.0432585026381,399.47354398897966L621.8926501932608,387.92472071256583L618.4421342620681,389.288613962733L613.839701024559,386.55949279563674L612.6890927151819,382.4557425845314L609.2372677870501,380.4000741109902L609.2372677870501,378.3397689216905L614.9903093339362,377.6533556497975L616.1409176433135,372.14332243676694L618.4421342620681,370.0720789844981L618.4421342620681,365.9184673763744L619.5927425714453,363.8376326747415L624.1938668120156,365.225740428133L626.4950834307701,369.379910857366Z" style="fill: rgb(116, 196, 118);"></path><path class="province" d="M656.4082814807007,451.9810745858871L661.0094057212709,452.6350879882468L659.8587974118934,455.89666970567475L662.160014030648,464.34701059779235L666.7624472681573,464.9945302447292L671.3635715087271,461.10257499464296L673.6647881274814,466.93849325103565L679.4178296743678,464.9945302447292L681.7190462931223,468.87867760596293L686.3201705336926,470.8165737046136L685.1695622243153,472.753664916338L679.4178296743678,473.3978807672032L679.4178296743678,475.33049708061844L681.7190462931223,475.97518136839494L682.868345605561,480.4751963463009L679.4178296743678,481.75891837263373L681.7190462931223,483.68195102643216L677.1166130556135,483.04166830614827L675.966004746236,486.88413033273173L673.6647881274814,486.88413033273173L675.966004746236,494.54195977931306L673.6647881274814,496.45080099025523L670.2142721962887,498.35901658565683L669.0636638869116,500.26372770635356L666.7624472681573,498.99366632464944L662.160014030648,502.80112937380517L658.7081891025164,507.2322217003315L656.4082814807007,507.2322217003315L656.4082814807007,508.49645477453964L652.9564565525691,509.75980697981754L652.9564565525691,512.2838855545324L648.3540233150597,514.8044908383488L647.2034150056825,517.9496985139408L643.7528990744897,520.4626109773485L639.1504658369806,521.0895978768999L636.8492492182263,516.0620695480648L636.8492492182263,512.2838855545324L633.3987332870336,505.33493138979895L631.097516668279,505.9671035483099L628.7963000495245,502.16783917191157L627.6456917401472,503.4341951101255L623.0432585026381,501.5328806289035L621.8926501932608,497.0875849795307L624.1938668120156,496.45080099025523L626.4950834307701,487.52297499347117L629.9469083589015,484.3234506324762L628.7963000495245,482.39968490589166L632.2481249776561,479.190497726731L631.097516668279,474.04331339307345L637.9998575276036,469.52440624342665L639.1504658369806,466.93849325103565L636.8492492182263,461.7513914190337L643.7528990744897,456.54759225892917L647.2034150056825,459.15159797354136L654.1070648619461,455.24399785271885Z" style="fill: rgb(186, 228, 179);"></path><path class="province" d="M652.9564565525691,435.5622606618021L659.8587974118934,430.93357767252434L662.160014030648,426.95419392766024L662.160014030648,421.6318734618626L667.9130555775344,420.29831639993796L666.7624472681573,416.9599168964478L669.0636638869116,416.2919378646043L671.3635715087271,410.2602693215525L671.3635715087271,409.58769187135954L675.966004746236,408.91633225894645L682.868345605561,414.283128207903L688.6213871524469,410.93100812105286L693.2238203899562,416.2919378646043L702.4273778680351,414.283128207903L711.6309353461145,412.94289845161677L713.9321519648686,415.622132561342L715.0827602742461,424.29540473323544L710.4803270367372,424.96130149603607L710.4803270367372,427.6173999886097L704.7285944867899,433.5791894192833L707.0298111055445,443.46452565875956L702.4273778680351,443.46452565875956L702.4273778680351,450.0203860578691L698.9755529399035,451.3282780027773L698.9755529399035,453.28734602761625L695.5237280117717,453.28734602761625L696.674336321149,455.89666970567475L693.2238203899562,457.1997315925201L690.9226037712015,464.9945302447292L685.1695622243153,466.2902715712506L685.1695622243153,468.87867760596293L688.6213871524469,470.8165737046136L686.3201705336926,470.8165737046136L681.7190462931223,468.87867760596293L679.4178296743678,464.9945302447292L673.6647881274814,466.93849325103565L671.3635715087271,461.10257499464296L666.7624472681573,464.9945302447292L662.160014030648,464.34701059779235L659.8587974118934,455.89666970567475L661.0094057212709,452.6350879882468L656.4082814807007,451.9810745858871L656.4082814807007,451.3282780027773L655.2576731713236,444.7779008949709L650.6552399338143,440.834435765462L650.6552399338143,438.8596763225012Z" style="fill: rgb(116, 196, 118);"></path><path class="province" d="M628.7963000495245,354.7803396209868L629.9469083589015,350.57868054472607L634.5480325994718,349.8778938497444L640.3010741463581,357.57402742347404L641.4516824557352,355.4785201416119L644.903507383867,357.57402742347404L649.5046316244373,354.0801979172706L651.8058482431918,354.7803396209868L652.9564565525691,358.2707361400927L655.2576731713236,358.2707361400927L656.4082814807007,354.0801979172706L659.8587974118934,353.38127668932606L662.160014030648,348.47359562336015L666.7624472681573,347.06778669142415L667.9130555775344,348.47359562336015L667.9130555775344,351.28068791202304L672.5141798181044,355.4785201416119L680.5684379837453,358.96866510034994L688.6213871524469,379.7131281860867L689.7719954618244,385.8755991721159L694.3744286993333,388.60605798623277L695.5237280117717,393.3707973250409L701.2767695586581,396.0867193731132L702.4273778680351,400.82632705528385L702.4273778680351,402.1778297260474L692.073212080579,398.1194749088146L690.9226037712015,400.1508654230376L694.3744286993333,403.5280575976325L692.073212080579,404.2034625520296L688.6213871524469,410.93100812105286L682.868345605561,414.283128207903L675.966004746236,408.91633225894645L671.3635715087271,409.58769187135954L669.0636638869116,408.91633225894645L667.9130555775344,406.8973206685409L661.0094057212709,407.57114805459474L659.8587974118934,405.5502547379499L662.160014030648,402.85387071018874L655.2576731713236,396.76565684525616L656.4082814807007,393.3707973250409L658.7081891025164,392.6917724343263L657.5588897900777,387.2414973712986L665.6118389587798,388.60605798623277L665.6118389587798,383.1413243687335L662.160014030648,381.0851174225754L659.8587974118934,384.5083575427306L654.1070648619461,383.8250096011784L652.9564565525691,376.9650336517018L650.6552399338143,378.3397689216905L649.5046316244373,376.9650336517018L651.8058482431918,368.6889623779476L647.2034150056825,369.379910857366L644.903507383867,364.53107659942344L639.1504658369806,363.8376326747415L635.6986409088488,358.2707361400927Z" style="fill: rgb(49, 163, 84);"></path><path class="province" d="M526.4026324904601,400.82632705528385L522.9521165592673,397.44272731885275L524.1014158717057,393.3707973250409L526.4026324904601,392.6917724343263L533.3062823467235,396.76565684525616L535.6061899685392,400.1508654230376L540.2086232060483,400.1508654230376L542.5098398248028,400.82632705528385L541.3592315154253,402.85387071018874L547.1122730623117,405.5502547379499L548.2615723747501,408.91633225894645L545.9616647529347,414.283128207903L543.6604481341799,412.94289845161677L537.9074065872937,418.2964865772945L535.6061899685392,416.9599168964478L534.456890656101,418.2964865772945L533.3062823467235,416.9599168964478L529.8544574185919,418.9650771834205L527.5532407998373,417.629113512415L525.2520241810828,420.29831639993796L526.4026324904601,422.96423448171936L525.2520241810828,429.6082828427397L527.5532407998373,428.94444446336036L532.1556740373464,436.8823785691179L533.3062823467235,436.2217110822087L535.6061899685392,439.51920974602854L535.6061899685392,449.3652882432891L533.3062823467235,453.28734602761625L528.7038491092146,453.28734602761625L528.7038491092146,449.3652882432891L526.4026324904601,450.6737236137279L526.4026324904601,446.7466364073921L524.1014158717057,446.7466364073921L522.9521165592673,440.17696293176283L517.199075012381,441.4931255758333L517.199075012381,439.51920974602854L513.7472500842493,438.20135991239187L511.44603346549457,438.8596763225012L511.44603346549457,443.46452565875956L504.5436926061702,444.7779008949709L502.2424759874157,449.3652882432891L501.09186767803817,448.7114072770789L501.09186767803817,446.7466364073921L499.9412593686611,444.7779008949709L498.79065105928385,444.7779008949709L499.9412593686611,448.05576358948576L497.64135174684566,448.7114072770789L496.4907434374684,443.46452565875956L490.737701890582,442.1500389428764L489.5870935812047,437.54126072106385L486.136577650012,436.8823785691179L483.83536103125743,433.5791894192833L489.5870935812047,428.28182331990627L487.2858769624502,424.96130149603607L488.43648527182745,422.2989610311988L490.737701890582,419.63184694764965L496.4907434374684,423.63072533156367L501.09186767803817,421.6318734618626L503.3930842967927,426.2906947687925L506.84490922492455,426.2906947687925L512.5966417748721,416.9599168964478L511.44603346549457,414.95354488609513L512.5966417748721,413.6139292026217L518.3496833217582,413.6139292026217L521.80150824989,403.5280575976325Z" style="fill: rgb(237, 248, 233);"></path><path class="province" d="M471.1799786250465,309.2441175307473L490.737701890582,303.43372541812175L491.8883101999593,288.0508302287067L497.64135174684566,278.4277674309034L503.3930842967927,276.9402260508426L505.6943009155475,283.6186802049764L499.9412593686611,294.66768446367416L503.3930842967927,296.8647124526158L510.2967341530564,298.3277440877599L514.8978583936266,301.9768155173979L510.2967341530564,306.3423559622777L510.2967341530564,315.0272714225324L501.09186767803817,315.0272714225324L501.09186767803817,320.06473969105L498.79065105928385,323.65032656722076L499.9412593686611,325.08202962102985L499.9412593686611,328.65339100900457L504.5436926061702,330.7926834686632L505.6943009155475,335.7677496884551L502.2424759874157,337.89355453206736L498.79065105928385,337.89355453206736L499.9412593686611,343.5474141049232L497.64135174684566,344.95702773488256L496.4907434374684,342.1362666543532L494.18952681871383,342.84122982284134L493.0389185093363,342.1362666543532L494.18952681871383,341.42931208621707L493.0389185093363,341.42931208621707L490.737701890582,340.01585050910165L489.5870935812047,337.18588140509524L484.9859693406345,336.47620480569L483.83536103125743,332.9267668252861L486.136577650012,330.7926834686632L482.68475272188016,321.500529923057L483.83536103125743,319.3454094738116L478.08231948437106,312.8609287502193L474.6304945562392,312.8609287502193L474.6304945562392,309.2441175307473Z" style="fill: rgb(237, 248, 233); opacity: 0.8;"></path><path class="province" d="M527.5532407998373,579.8283454314703L533.3062823467235,576.166211375774L535.6061899685392,571.886801030352L540.2086232060483,570.6623868100421L545.9616647529347,569.4372872535208L550.5627889935047,569.4372872535208L552.8640056122592,567.5990425739833L554.0146139216365,567.5990425739833L559.7676554685227,571.886801030352L562.0675630903381,571.2753758403551L554.0146139216365,582.8749014946252L552.8640056122592,589.5639536479039L548.2615723747501,590.7782067060905L545.9616647529347,593.8117963530378L543.6604481341799,593.8117963530378L541.3592315154253,597.4448075242694L532.1556740373464,595.022493544562L527.5532407998373,592.5991029681614Z" style="fill: rgb(237, 248, 233);"></path><path class="province" d="M701.2767695586581,499.62953328751377L702.4273778680351,500.26372770635356L700.1261612492806,504.06847820917056L701.2767695586581,506.60049315726536L697.824944630526,514.1739466687903L694.3744286993333,527.3551500527383L689.7719954618244,533.5988018073851L687.4707788430696,542.3084451849231L686.3201705336926,544.1691255412394L685.1695622243153,538.580450144794L679.4178296743678,534.8454029855126L677.1166130556135,527.9798590927983L678.2672213649907,519.2065775505025L689.7719954618244,499.62953328751377L696.674336321149,495.81523415377075Z" style="fill: rgb(237, 248, 233);"></path><path class="province" d="M642.6022907651127,262.71479598636506L641.4516824557352,264.22047666630795L640.3010741463581,264.97344230850535L634.5480325994718,266.47620698028345L635.6986409088488,269.47424287338595L635.6986409088488,271.71986929477396L634.5480325994718,273.21400493563976L631.097516668279,273.21400493563976L628.7963000495245,275.45081061565463L626.4950834307701,273.21400493563976L620.7433508808226,274.70624584495886L617.2915259526906,272.4663245705299L616.1409176433135,267.22601034574154L623.0432585026381,261.9620810184372L620.7433508808226,256.6741696845312L625.3444751213926,255.91578914431727L626.4950834307701,252.88071900101966L629.9469083589015,252.88071900101966L628.7963000495245,250.60000770713566L632.2481249776561,248.31474517571814L636.8492492182263,254.39925508895203L642.6022907651127,255.15863446449703L640.3010741463581,257.4303299990413Z" style="fill: rgb(237, 248, 233);"></path><path class="province" d="M634.5480325994718,273.21400493563976L635.6986409088488,271.71986929477396L639.1504658369806,272.4663245705299L639.1504658369806,269.47424287338595L640.3010741463581,264.97344230850535L641.4516824557352,264.22047666630795L642.6022907651127,262.71479598636506L646.0528066963054,264.97344230850535L646.0528066963054,266.47620698028345L643.7528990744897,266.47620698028345L643.7528990744897,270.2238305791237L646.0528066963054,273.21400493563976L649.5046316244373,273.21400493563976L648.3540233150597,276.19660032536797L650.6552399338143,279.1699928208038L650.6552399338143,279.9134429582599L648.3540233150597,281.3972607957404L644.903507383867,289.5245759690779L640.3010741463581,290.99651612769253L633.3987332870336,286.57527099429706L633.3987332870336,284.359355856118L635.6986409088488,281.3972607957404Z" style="fill: rgb(237, 248, 233);"></path><path class="province" d="M688.6213871524469,410.93100812105286L692.073212080579,404.2034625520296L694.3744286993333,403.5280575976325L690.9226037712015,400.1508654230376L692.073212080579,398.1194749088146L702.4273778680351,402.1778297260474L701.2767695586581,408.91633225894645L702.4273778680351,414.283128207903L693.2238203899562,416.2919378646043Z" style="fill: rgb(237, 248, 233);"></path><path class="province" d="M605.7867518558571,537.3362232171773L604.6361435464798,541.0665572249956L602.3349269277253,541.0665572249956L596.583194377778,541.0665572249956L595.432586068401,540.4446157184227L596.583194377778,537.3362232171773L600.0337103089707,535.4691137187696L602.3349269277253,535.4691137187696L603.4855352371028,535.4691137187696L603.4855352371028,537.3362232171773Z" style="fill: rgb(237, 248, 233);"></path><path class="province" d="M592.5554107964883,540.8333519651488L592.6994004597777,541.3760419932157L591.9807611402689,541.6091836776027L591.8367714769795,540.2890999126837L592.2687404668482,540.2890999126837Z" style="fill: rgb(237, 248, 233);"></path><g class="legend"><rect x="20" y="560" width="20" height="20" style="fill: rgb(237, 248, 233);"></rect><text x="50" y="576">1,127,589 - 2,837,389</text></g><g class="legend"><rect x="20" y="540" width="20" height="20" style="fill: rgb(186, 228, 179);"></rect><text x="50" y="556">2,837,389 - 4,547,189</text></g><g class="legend"><rect x="20" y="520" width="20" height="20" style="fill: rgb(116, 196, 118);"></rect><text x="50" y="536">4,547,189 - 6,256,989</text></g><g class="legend"><rect x="20" y="500" width="20" height="20" style="fill: rgb(49, 163, 84);"></rect><text x="50" y="516">6,256,989 - 7,966,789</text></g><g class="legend"><rect x="20" y="480" width="20" height="20" style="fill: rgb(0, 109, 44);"></rect><text x="50" y="496">7,966,789 - 9,676,589</text></g></svg>